<svg width="54" height="54" viewBox="0 0 54 54" fill="none" xmlns="http://www.w3.org/2000/svg">
<g clip-path="url(#clip0)">
<g clip-path="url(#clip1)">
<path fill-rule="evenodd" clip-rule="evenodd" d="M48.5351 19.7087L46.7255 18.8571L46.8098 18.6778C47.2634 17.7141 48.0826 16.971 49.0858 16.6133L51.0461 15.9144V15.261L48.7848 14.3234C47.6939 13.8711 46.8586 12.9598 46.5028 11.8337L46.4592 11.6958C46.1482 10.7116 46.2296 9.64539 46.6864 8.71991L47.5862 6.89703L48.9844 5.55477L47.5862 6.89703L46.988 6.27384L44.9754 7.18578C43.9895 7.63256 42.8645 7.66065 41.8574 7.26362L41.4431 7.10028C40.444 6.70639 39.6453 5.92729 39.2266 4.93832L38.4061 3L37.6939 3L37.1153 4.70321C36.7395 5.80977 35.8985 6.69662 34.8134 7.13064L34.4462 7.27753C33.5049 7.65406 32.4557 7.6591 31.5108 7.29163L29.3421 6.44823L28.6927 7.20247L29.4332 8.75417C29.8692 9.66764 29.9426 10.7124 29.6387 11.6779L29.504 12.106C29.1207 13.3238 28.179 14.2856 26.9695 14.6945L25 15.3602L25 15.89L27.1413 16.6145C28.1536 16.9569 28.9867 17.6902 29.455 18.6508L29.6695 19.0908C30.2558 20.2937 30.2018 21.71 29.5257 22.8647L28.814 24.0802L29.4287 24.7232L31.0536 23.9804C32.0723 23.5147 33.2395 23.4974 34.2715 23.9328L33.4941 25.7755C32.9781 25.5579 32.3945 25.5665 31.8852 25.7993L30.2602 26.5422C29.4855 26.8963 28.5716 26.7209 27.983 26.1052L27.3683 25.4622C26.7512 24.8167 26.6368 23.8402 27.0881 23.0696L27.7998 21.8541C28.1379 21.2768 28.1649 20.5686 27.8717 19.9672L27.6572 19.5271C27.4231 19.0468 27.0065 18.6802 26.5004 18.509L24.359 17.7845C23.5467 17.5097 23 16.7475 23 15.89V15.3602C23 14.5025 23.5469 13.7403 24.3595 13.4656L26.329 12.7998C26.9338 12.5953 27.4046 12.1145 27.5963 11.5055L27.731 11.0774C27.8829 10.5947 27.8462 10.0723 27.6282 9.61559L26.8877 8.06389C26.5461 7.34822 26.6597 6.49835 27.1771 5.89744L27.8266 5.1432C28.3796 4.50102 29.2772 4.27706 30.067 4.58422L32.2357 5.42763C32.7082 5.61136 33.2328 5.60884 33.7034 5.42058L34.0707 5.27369C34.6132 5.05668 35.0337 4.61325 35.2216 4.05997L35.8001 2.35676C36.0757 1.5456 36.8372 1 37.6939 1H38.4061C39.2094 1 39.9348 1.48061 40.2479 2.22036L41.0684 4.15867C41.2777 4.65316 41.6771 5.04271 42.1767 5.23965L42.591 5.403C43.0945 5.60151 43.657 5.58747 44.15 5.36408L46.1625 4.45214C46.9347 4.10223 47.8436 4.2772 48.4308 4.88878L49.029 5.51196C49.6122 6.11945 49.7524 7.02716 49.3796 7.78229L48.4798 9.60517C48.2514 10.0679 48.2107 10.601 48.3662 11.0931L48.4098 11.2311C48.5877 11.7941 49.0054 12.2497 49.5508 12.4759L51.8121 13.4135C52.5591 13.7233 53.0461 14.4523 53.0461 15.261V15.9144C53.0461 16.7601 52.5143 17.5143 51.7177 17.7983L49.7575 18.4971C49.2558 18.676 48.8462 19.0475 48.6195 19.5294L48.5351 19.7087ZM42.6291 25.7236C43.1102 25.5377 43.6444 25.5448 44.1203 25.7435L46.16 26.5948C46.9353 26.9184 47.8301 26.723 48.4 26.1057L49.0673 25.3828C49.6295 24.7738 49.7578 23.8812 49.3899 23.1385L48.5526 21.448C48.2817 20.9012 48.2753 20.2608 48.5351 19.7087L46.7255 18.8571C46.2059 19.9613 46.2187 21.2422 46.7604 22.3357L47.5977 24.0262L46.9304 24.7492L44.8907 23.8978C43.9389 23.5005 42.8704 23.4863 41.9083 23.858L41.9082 23.858L41.8843 23.8672C40.8808 24.2549 40.0758 25.0305 39.651 26.0189L38.7682 28.0729H37.906L37.0961 26.2808C36.681 25.3623 35.9345 24.6344 35.0059 24.2426L34.2715 23.9328L33.4941 25.7755L34.2285 26.0854C34.6928 26.2812 35.066 26.6452 35.2736 27.1044L36.0835 28.8965C36.4071 29.6127 37.1201 30.0729 37.906 30.0729H38.7682C39.5674 30.0729 40.29 29.597 40.6056 28.8627L41.4885 26.8086C41.7009 26.3145 42.1034 25.9267 42.6051 25.7328L42.6291 25.7236ZM45.2958 15.5364C45.2958 19.3666 42.1908 22.4716 38.3606 22.4716C34.5304 22.4716 31.4255 19.3666 31.4255 15.5364C31.4255 11.7062 34.5304 8.60125 38.3606 8.60125C42.1908 8.60125 45.2958 11.7062 45.2958 15.5364ZM43.2958 15.5364C43.2958 18.262 41.0862 20.4716 38.3606 20.4716C35.635 20.4716 33.4255 18.262 33.4255 15.5364C33.4255 12.8108 35.635 10.6013 38.3606 10.6013C41.0862 10.6013 43.2958 12.8108 43.2958 15.5364Z" fill="#2CAAE2"/>
<path fill-rule="evenodd" clip-rule="evenodd" d="M25.3473 44.6802L23.8197 43.3892L23.9476 43.2379C24.6351 42.4244 25.6187 41.9186 26.6804 41.8328L28.7547 41.6651L28.9238 41.0339L26.9823 39.543C26.0456 38.8237 25.4747 37.7274 25.4224 36.5476L25.416 36.403C25.3703 35.3719 25.7249 34.3631 26.4057 33.5874L27.7466 32.0595L29.4446 31.1248L27.7466 32.0595L27.33 31.3027L25.1501 31.6627C24.082 31.839 22.9881 31.575 22.1181 30.9309L21.7602 30.6658C20.8971 30.0268 20.3272 29.0675 20.1788 28.0039L19.8879 25.9192L19.2 25.7349L18.2003 27.2303C17.5509 28.2019 16.509 28.8409 15.3486 28.9793L14.9559 29.0261C13.9492 29.1462 12.9344 28.8795 12.1169 28.28L10.2403 26.904L9.41779 27.4645L9.73149 29.155C9.91616 30.1502 9.7167 31.1783 9.17331 32.0323L8.93236 32.4109C8.24691 33.4881 7.08842 34.1733 5.81428 34.2552L3.73956 34.3886L3.60246 34.9003L5.48331 36.1543C6.37243 36.7471 6.98739 37.671 7.19106 38.72L7.28437 39.2006C7.53942 40.5142 7.12071 41.8683 6.16872 42.8087L5.16667 43.7985L5.59401 44.5787L7.35588 44.2818C8.46034 44.0956 9.59226 44.381 10.4764 45.0687L9.24854 46.6474C8.80647 46.3036 8.24051 46.1609 7.68828 46.2539L5.92641 46.5509C5.08649 46.6925 4.24907 46.2865 3.83989 45.5395L3.41255 44.7593C2.98354 43.976 3.12581 43.0033 3.76116 42.3757L4.76321 41.3858C5.2392 40.9156 5.44856 40.2386 5.32103 39.5818L5.22773 39.1012C5.12589 38.5767 4.81841 38.1147 4.37385 37.8183L2.49299 36.5643C1.77948 36.0886 1.44865 35.211 1.6706 34.3826L1.80771 33.8709C2.02971 33.0424 2.75529 32.4477 3.61126 32.3927L5.68598 32.2593C6.32305 32.2184 6.9023 31.8758 7.24502 31.3372L7.48597 30.9585C7.75767 30.5316 7.8574 30.0175 7.76506 29.5199L7.45136 27.8294C7.30668 27.0497 7.63631 26.2582 8.29164 25.8117L9.1142 25.2512C9.81453 24.7741 10.7396 24.7901 11.423 25.2912L13.2995 26.6671C13.7083 26.9669 14.2157 27.1002 14.719 27.0402L15.1117 26.9934C15.6919 26.9242 16.2129 26.6047 16.5376 26.1189L17.5372 24.6234C18.0133 23.9112 18.8901 23.5813 19.7176 23.8031L20.4056 23.9874C21.1815 24.1953 21.7577 24.8473 21.8688 25.6429L22.1596 27.7275C22.2338 28.2593 22.5188 28.7389 22.9503 29.0585L23.3083 29.3235C23.7432 29.6456 24.2902 29.7776 24.8242 29.6894L27.0042 29.3294C27.8407 29.1913 28.6733 29.5955 29.0821 30.3382L29.4987 31.095C29.9048 31.8328 29.8053 32.7458 29.2498 33.3787L27.9089 34.9066C27.5685 35.2945 27.3912 35.7989 27.414 36.3144L27.4204 36.459C27.4465 37.0489 27.732 37.5971 28.2004 37.9567L30.1419 39.4477C30.7833 39.9402 31.065 40.7705 30.8557 41.5516L30.6866 42.1827C30.4677 42.9995 29.7588 43.5904 28.9159 43.6586L26.8416 43.8263C26.3107 43.8692 25.8189 44.1221 25.4752 44.5288L25.3473 44.6802ZM18.0858 48.9615C18.5985 48.9065 19.1127 49.0517 19.521 49.3667L21.2708 50.717C21.9359 51.2302 22.8509 51.2731 23.5611 50.8243L24.3928 50.2987C25.0934 49.8559 25.4483 49.0269 25.2852 48.2143L24.914 46.3647C24.7939 45.7665 24.9534 45.1462 25.3473 44.6802L23.8197 43.3892C23.032 44.3213 22.7129 45.5619 22.9531 46.7584L23.3244 48.608L22.4926 49.1336L20.7428 47.7833C19.9262 47.1532 18.8979 46.8629 17.8724 46.9729L17.8723 46.973L17.8468 46.9757C16.7772 47.0905 15.7989 47.6313 15.1327 48.476L13.7483 50.2315L12.9155 50.0083L12.5971 48.0677C12.4338 47.0731 11.9012 46.1768 11.1055 45.558L10.4764 45.0687L9.24854 46.6474L9.8777 47.1367C10.2755 47.4461 10.5418 47.8943 10.6235 48.3916L10.9419 50.3322C11.0692 51.1077 11.6388 51.7368 12.3979 51.9402L13.2307 52.1633C14.0027 52.3702 14.8238 52.0975 15.3187 51.4699L16.7031 49.7144C17.0362 49.292 17.5254 49.0217 18.0602 48.9643L18.0858 48.9615ZM23.2976 39.8115C22.3063 43.5111 18.5035 45.7067 14.8038 44.7154C11.1041 43.724 8.90859 39.9212 9.89992 36.2216C10.8912 32.5219 14.694 30.3263 18.3937 31.3177C22.0934 32.309 24.2889 36.1118 23.2976 39.8115ZM21.3658 39.2938C20.6603 41.9266 17.9542 43.4889 15.3214 42.7835C12.6887 42.0781 11.1263 39.3719 11.8318 36.7392C12.5372 34.1065 15.2433 32.5441 17.8761 33.2495C20.5088 33.955 22.0712 36.6611 21.3658 39.2938Z" fill="#2CAAE2"/>
</g>
</g>
<defs>
<clipPath id="clip0">
<rect width="54" height="54" fill="white"/>
</clipPath>
<clipPath id="clip1">
<rect width="54" height="54" fill="white"/>
</clipPath>
</defs>
</svg>
