<svg width="54" height="54" viewBox="0 0 54 54" fill="none" xmlns="http://www.w3.org/2000/svg">
<g clip-path="url(#clip0)">
<g clip-path="url(#clip1)">
<path fill-rule="evenodd" clip-rule="evenodd" d="M47.168 44.6335L6.2627 10.58L7.5423 9.04297L48.4476 43.0964L47.168 44.6335Z" fill="#2CAAE2"/>
<path fill-rule="evenodd" clip-rule="evenodd" d="M27 52C40.8071 52 52 40.8071 52 27C52 13.1929 40.8071 2 27 2C13.1929 2 2 13.1929 2 27C2 40.8071 13.1929 52 27 52ZM27 54C41.9117 54 54 41.9117 54 27C54 12.0883 41.9117 0 27 0C12.0883 0 0 12.0883 0 27C0 41.9117 12.0883 54 27 54Z" fill="#2CAAE2"/>
<path fill-rule="evenodd" clip-rule="evenodd" d="M17.6071 14.1711C18.7589 14.1711 19.6927 13.2373 19.6927 12.0855C19.6927 10.9336 18.7589 9.99988 17.6071 9.99988C16.4552 9.99988 15.5215 10.9336 15.5215 12.0855C15.5215 13.2373 16.4552 14.1711 17.6071 14.1711ZM17.6071 16.1711C19.8635 16.1711 21.6927 14.3419 21.6927 12.0855C21.6927 9.82907 19.8635 7.99988 17.6071 7.99988C15.3507 7.99988 13.5215 9.82907 13.5215 12.0855C13.5215 14.3419 15.3507 16.1711 17.6071 16.1711Z" fill="#2CAAE2"/>
<path fill-rule="evenodd" clip-rule="evenodd" d="M23.5192 13.7786C23.6852 13.6654 23.8815 13.6049 24.0824 13.6049H33.5449C33.8953 13.6049 34.2201 13.7883 34.4011 14.0883C34.8694 14.8646 35.5837 16.0412 36.2042 17.048C36.5147 17.5519 36.7999 18.0101 37.0183 18.3533C37.1278 18.5255 37.2177 18.6643 37.2843 18.7637C37.3323 18.8353 37.3548 18.866 37.3585 18.8717C37.5963 19.136 37.9174 19.6486 37.9202 20.3352C37.9233 21.1127 37.5201 21.87 36.6833 22.5217C35.8819 23.1459 35.0236 23.2178 34.3045 23.0056C33.6409 22.8098 33.133 22.3884 32.8471 22.0475C32.8268 22.0233 32.8076 21.9981 32.7897 21.9721L30.8313 19.1278H27.2786C28.1899 20.4663 29.4658 22.326 30.7795 24.2043C31.8953 25.7997 32.1484 27.2514 31.8382 28.4654C31.5436 29.6185 30.7787 30.4018 30.118 30.7935L23.7874 35.0971V43.8338C23.7874 45.0824 23.2721 45.9625 22.5092 46.4751C21.8286 46.9325 21.0525 47.0308 20.5158 46.9919C19.3036 46.981 18.4298 46.4974 17.8781 45.807C17.3547 45.152 17.178 44.3843 17.1721 43.8449L17.172 43.8338L17.172 33.8725C17.172 33.0349 17.4727 32.3089 17.8059 31.7672C18.1376 31.2279 18.5396 30.8087 18.8448 30.5662C18.8796 30.5385 18.9162 30.5132 18.9543 30.4904L22.6505 28.2833L21.5388 26.6808C21.4446 27.604 21.0124 28.2811 20.4084 28.7062C19.793 29.1394 19.0891 29.25 18.5989 29.2282H12.0436C11.0038 29.2282 10.0181 29.04 9.52285 28.1858C9.30399 27.8084 9.25621 27.4111 9.24193 27.1215C9.23298 26.94 9.2367 26.7106 9.23981 26.5187C9.24118 26.4341 9.24244 26.3568 9.24244 26.2941C9.24244 25.7851 9.34341 25.3183 9.58204 24.9208C9.82593 24.5145 10.1647 24.262 10.4984 24.1078C10.8155 23.9612 11.1331 23.9011 11.3595 23.8669C11.5019 23.8454 11.5894 23.8349 11.6546 23.8271C11.7263 23.8185 11.7712 23.8131 11.8328 23.7999C11.902 23.7849 11.9727 23.7774 12.0436 23.7774H16.2595V19.2559C16.2595 18.9252 16.423 18.6159 16.6963 18.4296L23.5192 13.7786ZM24.3908 15.6049L18.2595 19.7845V24.7774C18.2595 25.3297 17.8118 25.7774 17.2595 25.7774H12.1379C12.0597 25.7909 11.9853 25.801 11.9235 25.8091C11.8936 25.813 11.8661 25.8165 11.84 25.8198C11.775 25.8281 11.7193 25.8353 11.6583 25.8445C11.4906 25.8698 11.3955 25.8964 11.3373 25.9233C11.2958 25.9425 11.2969 25.9501 11.2968 25.9501C11.2916 25.9589 11.2424 26.0447 11.2424 26.2941C11.2424 26.4419 11.2402 26.5565 11.2383 26.6547C11.2356 26.7947 11.2335 26.9012 11.2395 27.023C11.2422 27.0769 11.2463 27.1159 11.2502 27.1433C11.3617 27.1819 11.5967 27.2282 12.0436 27.2282H18.6239C18.643 27.2282 18.6621 27.2287 18.6812 27.2298C18.8347 27.2386 19.0802 27.1953 19.2571 27.0708C19.3348 27.0161 19.4016 26.945 19.4528 26.8431C19.5045 26.7399 19.558 26.5694 19.558 26.2941V23.5127C19.558 23.0755 19.8421 22.6889 20.2594 22.5584C20.6767 22.4278 21.1304 22.5835 21.3797 22.9427L24.9041 28.023C25.062 28.2506 25.1184 28.5336 25.0598 28.8044C25.0013 29.0752 24.833 29.3095 24.5951 29.4516L20.0457 32.1681C19.9117 32.2847 19.6954 32.5127 19.5094 32.8151C19.303 33.1505 19.172 33.5147 19.172 33.8725V43.8272C19.1751 44.0078 19.247 44.3162 19.4406 44.5585C19.6011 44.7594 19.9024 44.9921 20.558 44.9921C20.5878 44.9921 20.6175 44.9935 20.647 44.9961C20.8525 45.0145 21.1654 44.9685 21.3936 44.8152C21.5596 44.7036 21.7874 44.4713 21.7874 43.8338V34.5678C21.7874 34.2366 21.9514 33.9269 22.2252 33.7408L29.0217 29.1204C29.0425 29.1062 29.0638 29.0929 29.0857 29.0803C29.3661 28.9192 29.7553 28.5383 29.9004 27.9704C30.0353 27.4425 30.0018 26.582 29.1405 25.3505C27.1593 22.5178 25.2647 19.7285 24.5635 18.6858C24.3573 18.3791 24.337 17.9838 24.5107 17.6576C24.6844 17.3315 25.0238 17.1278 25.3933 17.1278H31.3569C31.6859 17.1278 31.9939 17.2896 32.1805 17.5606L34.4042 20.7903C34.5039 20.8976 34.6815 21.0316 34.8704 21.0874C34.9618 21.1143 35.0446 21.1199 35.1235 21.1063C35.1996 21.0932 35.3106 21.0559 35.4544 20.9439C35.7017 20.7512 35.816 20.5987 35.8681 20.5048C35.9171 20.4167 35.9203 20.3649 35.9202 20.3433C35.9201 20.3156 35.9132 20.2861 35.8987 20.2549C35.8857 20.2271 35.8729 20.2112 35.873 20.211C35.8731 20.211 35.8742 20.2122 35.8765 20.2147C35.7827 20.1159 35.6818 19.9651 35.6266 19.8827L35.6224 19.8764C35.5431 19.7579 35.4436 19.6041 35.3309 19.427C35.1048 19.0716 34.8138 18.6039 34.5016 18.0974C33.9952 17.2758 33.428 16.3437 32.9808 15.6049H24.3908Z" fill="#2CAAE2"/>
<path fill-rule="evenodd" clip-rule="evenodd" d="M33.5658 27.7396C34.0002 27.7569 34.3735 28.0529 34.4896 28.4718L35.4196 31.8292L40.612 29.7254C40.628 29.7189 40.6441 29.7129 40.6604 29.7072C41.577 29.39 43.2145 29.6064 44.2718 31.4427C44.8086 32.375 44.8733 33.2635 44.6283 34.0131C44.3973 34.7201 43.92 35.2149 43.5082 35.4742C43.4535 35.5086 43.3956 35.5377 43.3353 35.5609L32.7514 39.644C32.2418 39.8406 31.6687 39.5919 31.4642 39.0855L29.2292 33.5519C29.0433 33.0917 29.223 32.5649 29.6513 32.3143C30.3438 31.909 31.0001 31.1746 31.5439 30.3636C32.0809 29.5628 32.4453 28.7825 32.5865 28.3957C32.7357 27.9874 33.1315 27.7222 33.5658 27.7396ZM31.3812 33.5396L32.95 37.4237L42.4963 33.7409C42.5722 33.675 42.6743 33.5541 42.7273 33.3919C42.7805 33.2291 42.8184 32.9267 42.5385 32.4406C42.2346 31.9127 41.9203 31.7179 41.7161 31.6419C41.6062 31.601 41.5089 31.5872 41.4332 31.5862C41.3764 31.5854 41.3388 31.5919 41.323 31.5953L35.1309 34.1042C34.8666 34.2112 34.5691 34.2004 34.3134 34.0744C34.0576 33.9483 33.8677 33.7191 33.7916 33.4443L33.2346 31.4332C33.2248 31.4479 33.2149 31.4627 33.205 31.4774C32.7345 32.1791 32.1218 32.9402 31.3812 33.5396Z" fill="#2CAAE2"/>
</g>
</g>
<defs>
<clipPath id="clip0">
<rect width="54" height="54" fill="white"/>
</clipPath>
<clipPath id="clip1">
<rect width="54" height="54" fill="white"/>
</clipPath>
</defs>
</svg>
