<svg width="54" height="54" viewBox="0 0 54 54" fill="none" xmlns="http://www.w3.org/2000/svg">
<path fill-rule="evenodd" clip-rule="evenodd" d="M51 5H3V40.3171L51 40.3171V5ZM3 3C1.89543 3 1 3.89543 1 5V40.3171C1 41.4216 1.89543 42.3171 3 42.3171H51C52.1046 42.3171 53 41.4216 53 40.3171V5C53 3.89543 52.1046 3 51 3H3Z" fill="#2CAAE2"/>
<path fill-rule="evenodd" clip-rule="evenodd" d="M52.3337 36.3677H1.66699V34.3677H52.3337V36.3677Z" fill="#2CAAE2"/>
<path fill-rule="evenodd" clip-rule="evenodd" d="M24.3586 15.3555H25.0751H28.9946H29.6572L29.9155 15.9656L31.6316 20.0198L33.087 20.5935L37.3008 18.6841L37.9451 18.3922L38.4349 18.9024L41.3146 21.9021L41.8004 22.4082L41.4899 23.0372L39.5481 26.971L39.9265 28.1685L44.4158 30.0299L45.0328 30.2857V30.9536V34.7931V35.6312L44.2077 35.7777L41.1854 36.3146L40.8356 34.3454L43.0328 33.9551V31.6215L38.7303 29.8376L38.3002 29.6592L38.1598 29.2152L37.5199 27.1902L37.3988 26.8068L37.5767 26.4463L39.386 22.7811L37.482 20.7978L33.5268 22.59L33.1412 22.7647L32.7473 22.6094L30.5076 21.7264L30.1171 21.5725L29.9535 21.1859L28.332 17.3555H25.7915L24.5136 21.1177L24.3655 21.5536L23.9381 21.7246L21.7306 22.6076L21.3644 22.7541L20.9968 22.6111L16.8875 21.013L15.0373 23.1617L16.6105 26.4582L16.7801 26.8135L16.6619 27.1891L15.8983 29.6154L15.7458 30.0998L15.2647 30.2625L11.0977 31.6711V33.9126L14.4328 34.3381L14.1798 36.322L9.97112 35.7851L9.09766 35.6737V34.7931V30.9536V30.2361L9.77741 30.0063L14.143 28.5305L14.6359 26.9643L12.9513 23.4343L12.6703 22.8455L13.096 22.3511L15.8332 19.1723L16.2946 18.6365L16.9535 18.8928L21.3541 20.6042L22.7679 20.0386L24.1282 16.0339L24.3586 15.3555ZM27.446 28.2031C24.9199 28.2031 22.8721 30.2509 22.8721 32.7771C22.8721 33.7008 23.0594 34.3262 23.5074 35.0249L21.8237 36.1044C21.16 35.0691 20.8721 34.066 20.8721 32.7771C20.8721 29.1464 23.8153 26.2031 27.446 26.2031C31.0767 26.2031 34.0199 29.1464 34.0199 32.7771C34.0199 34.0763 33.7123 35.0776 33.054 36.1044L31.3703 35.0249C31.8237 34.3177 32.0199 33.6906 32.0199 32.7771C32.0199 30.2509 29.9721 28.2031 27.446 28.2031Z" fill="#607D8B"/>
<path fill-rule="evenodd" clip-rule="evenodd" d="M31.6316 20.0198L29.6572 15.3555H24.3586L22.7679 20.0386L21.3541 20.6042L16.2946 18.6365L12.6703 22.8455L14.6359 26.9643L14.143 28.5305L9.09766 30.2361V35.6737L14.1798 36.322L14.4328 34.3381L11.0977 33.9126V31.6711L15.7458 30.0998L16.7801 26.8135L15.0373 23.1617L16.8875 21.013L21.3644 22.7541L24.3655 21.5536L25.7915 17.3555H28.332L30.1171 21.5725L33.1412 22.7647L37.482 20.7978L39.386 22.7811L37.3988 26.8068L38.3002 29.6592L43.0328 31.6215V33.9551L40.8356 34.3454L41.1854 36.3146L45.0328 35.6312V30.2857L39.9265 28.1685L39.5481 26.971L41.8004 22.4082L37.9451 18.3922L33.087 20.5935L31.6316 20.0198ZM20.8721 32.7771C20.8721 29.1464 23.8153 26.2031 27.446 26.2031C31.0767 26.2031 34.0199 29.1464 34.0199 32.7771C34.0199 33.3095 33.9683 33.792 33.862 34.2466C33.7092 34.9 33.4435 35.4961 33.0562 36.1009C33.056 36.1012 33.0557 36.1016 33.0555 36.102C33.055 36.1028 33.0545 36.1036 33.054 36.1044L31.3703 35.0249C31.3708 35.0242 31.3712 35.0235 31.3717 35.0228C31.8241 34.3164 32.0199 33.6896 32.0199 32.7771C32.0199 30.2509 29.9721 28.2031 27.446 28.2031C24.9199 28.2031 22.8721 30.2509 22.8721 32.7771C22.8721 33.7 23.0591 34.325 23.5061 35.0228C23.5065 35.0235 23.507 35.0242 23.5074 35.0249L21.8237 36.1044C21.8235 36.104 21.8233 36.1036 21.823 36.1033C21.4321 35.4933 21.1716 34.8944 21.0236 34.2416C20.9206 33.7869 20.8721 33.3061 20.8721 32.7771Z" fill="#2CAAE2"/>
<path fill-rule="evenodd" clip-rule="evenodd" d="M21.7394 40.7894C22.2334 41.0364 22.4336 41.637 22.1866 42.131L18.4712 49.5619H34.8937L31.1783 42.131C30.9313 41.637 31.1315 41.0364 31.6255 40.7894C32.1195 40.5424 32.7201 40.7426 32.9671 41.2366L37.1298 49.5619H43.4873C44.0396 49.5619 44.4873 50.0096 44.4873 50.5619C44.4873 51.1141 44.0396 51.5619 43.4873 51.5619H10.5117C9.95943 51.5619 9.51172 51.1141 9.51172 50.5619C9.51172 50.0096 9.95943 49.5619 10.5117 49.5619H16.2351L20.3978 41.2366C20.6448 40.7426 21.2454 40.5424 21.7394 40.7894Z" fill="#2CAAE2"/>
</svg>
