<svg width="54" height="54" viewBox="0 0 54 54" fill="none" xmlns="http://www.w3.org/2000/svg">
<g clip-path="url(#clip0)">
<path fill-rule="evenodd" clip-rule="evenodd" d="M0 48.3047C0 47.7524 0.447715 47.3047 1 47.3047H53C53.5523 47.3047 54 47.7524 54 48.3047C54 48.857 53.5523 49.3047 53 49.3047H1C0.447715 49.3047 0 48.857 0 48.3047Z" fill="#2CAAE2"/>
<path fill-rule="evenodd" clip-rule="evenodd" d="M5.14453 41.1953V46.8448H8.64969V41.1953H5.14453ZM4.14453 39.1953C3.59225 39.1953 3.14453 39.643 3.14453 40.1953V48.8448H10.6497V40.1953C10.6497 39.643 10.202 39.1953 9.64969 39.1953H4.14453Z" fill="#2CAAE2"/>
<path fill-rule="evenodd" clip-rule="evenodd" d="M18.0107 35.8325V46.8428H21.5159V35.8325H18.0107ZM17.0107 33.8325C16.4585 33.8325 16.0107 34.2802 16.0107 34.8325V48.8428H23.5159V34.8325C23.5159 34.2802 23.0682 33.8325 22.5159 33.8325H17.0107Z" fill="#2CAAE2"/>
<path fill-rule="evenodd" clip-rule="evenodd" d="M31.9482 29.3984V46.8417H35.4534V29.3984H31.9482ZM30.9482 27.3984C30.396 27.3984 29.9482 27.8462 29.9482 28.3984V48.8417H37.4534V28.3984C37.4534 27.8462 37.0057 27.3984 36.4534 27.3984H30.9482Z" fill="#2CAAE2"/>
<path fill-rule="evenodd" clip-rule="evenodd" d="M45.8867 22.9648V46.8411H49.3919V22.9648H45.8867ZM44.8867 20.9648C44.3344 20.9648 43.8867 21.4126 43.8867 21.9648V48.8411H51.3919V21.9648C51.3919 21.4126 50.9442 20.9648 50.3919 20.9648H44.8867Z" fill="#2CAAE2"/>
<path fill-rule="evenodd" clip-rule="evenodd" d="M37.5397 5.83576C37.6305 5.29099 38.1457 4.92297 38.6905 5.01376L48.34 6.62201C48.6627 6.67579 48.9387 6.884 49.079 7.17953C49.2193 7.47505 49.2061 7.82051 49.0438 8.10454L44.7552 15.6097C44.4812 16.0892 43.8703 16.2558 43.3908 15.9818C42.9113 15.7078 42.7447 15.0969 43.0187 14.6174L45.7741 9.79548L2.48552 29.4263C1.98253 29.6544 1.38988 29.4316 1.16178 28.9286C0.933686 28.4256 1.15652 27.833 1.65951 27.6049L44.7703 8.05465L38.3617 6.98655C37.8169 6.89575 37.4489 6.38053 37.5397 5.83576Z" fill="#2CAAE2"/>
</g>
<defs>
<clipPath id="clip0">
<rect width="54" height="54" fill="white"/>
</clipPath>
</defs>
</svg>
