<svg width="54" height="54" viewBox="0 0 54 54" fill="none" xmlns="http://www.w3.org/2000/svg">
<path fill-rule="evenodd" clip-rule="evenodd" d="M14.9775 10.9158C15.4026 11.2683 15.4615 11.8988 15.109 12.3239L11.6905 16.4464C11.3485 16.8589 10.7421 16.9284 10.3155 16.6041L7.80399 14.6946C7.36435 14.3603 7.27893 13.7329 7.61319 13.2933C7.94746 12.8536 8.57484 12.7682 9.01448 13.1025L10.7629 14.4318L13.5694 11.0473C13.9219 10.6221 14.5524 10.5633 14.9775 10.9158Z" fill="#2CAAE2"/>
<path fill-rule="evenodd" clip-rule="evenodd" d="M14.9775 18.4241C15.4026 18.7766 15.4615 19.4071 15.109 19.8322L11.6905 23.9547C11.3485 24.3672 10.7421 24.4367 10.3155 24.1124L7.80399 22.2029C7.36435 21.8686 7.27893 21.2412 7.61319 20.8016C7.94746 20.3619 8.57484 20.2765 9.01448 20.6108L10.7629 21.9401L13.5694 18.5556C13.9219 18.1304 14.5524 18.0716 14.9775 18.4241Z" fill="#2CAAE2"/>
<path fill-rule="evenodd" clip-rule="evenodd" d="M45.9969 37.874C46.422 38.2266 46.4809 38.857 46.1283 39.2821L39.6345 47.1134C39.2925 47.5259 38.6861 47.5954 38.2595 47.2711L33.4886 43.6437C33.0489 43.3094 32.9635 42.682 33.2978 42.2424C33.632 41.8027 34.2594 41.7173 34.699 42.0516L38.7069 45.0988L44.5888 38.0055C44.9413 37.5804 45.5717 37.5215 45.9969 37.874Z" fill="#2CAAE2"/>
<path fill-rule="evenodd" clip-rule="evenodd" d="M14.9775 25.2139C15.4026 25.5664 15.4615 26.1968 15.109 26.622L11.6905 30.7445C11.3485 31.157 10.7421 31.2265 10.3155 30.9022L7.80399 28.9927C7.36435 28.6584 7.27893 28.031 7.61319 27.5914C7.94746 27.1517 8.57484 27.0663 9.01448 27.4006L10.7629 28.7299L13.5694 25.3454C13.9219 24.9202 14.5524 24.8614 14.9775 25.2139Z" fill="#2CAAE2"/>
<path fill-rule="evenodd" clip-rule="evenodd" d="M14.9775 32.7249C15.4026 33.0774 15.4615 33.7078 15.109 34.133L11.6905 38.2555C11.3485 38.668 10.7421 38.7375 10.3155 38.4132L7.80399 36.5036C7.36435 36.1694 7.27893 35.542 7.61319 35.1024C7.94746 34.6627 8.57484 34.5773 9.01448 34.9116L10.7629 36.2409L13.5694 32.8563C13.9219 32.4312 14.5524 32.3723 14.9775 32.7249Z" fill="#2CAAE2"/>
<path fill-rule="evenodd" clip-rule="evenodd" d="M2 2.99927C2 1.34241 3.34315 -0.000732422 5 -0.000732422H38.3536C40.0105 -0.000732422 41.3536 1.34241 41.3536 2.99927V32.2256H39.3536V2.99927C39.3536 2.44698 38.9059 1.99927 38.3536 1.99927H5C4.44772 1.99927 4 2.44698 4 2.99927V45.9753C4 46.5276 4.44772 46.9753 5 46.9753H31.7547V48.9753H5C3.34315 48.9753 2 47.6322 2 45.9753V2.99927Z" fill="#2CAAE2"/>
<path fill-rule="evenodd" clip-rule="evenodd" d="M19.2617 13.3196C18.7094 13.3196 18.2617 13.7673 18.2617 14.3196V14.9862C18.2617 15.5385 18.7094 15.9862 19.2617 15.9862H34.9269C35.4792 15.9862 35.9269 15.5385 35.9269 14.9862V14.3196C35.9269 13.7673 35.4792 13.3196 34.9269 13.3196H19.2617Z" fill="#2CAAE2"/>
<path fill-rule="evenodd" clip-rule="evenodd" d="M19.2617 21.2532C18.7094 21.2532 18.2617 21.7009 18.2617 22.2532V22.9198C18.2617 23.4721 18.7094 23.9198 19.2617 23.9198H34.9269C35.4792 23.9198 35.9269 23.4721 35.9269 22.9198V22.2532C35.9269 21.7009 35.4792 21.2532 34.9269 21.2532H19.2617Z" fill="#2CAAE2"/>
<path fill-rule="evenodd" clip-rule="evenodd" d="M19.2617 28.0469C18.7094 28.0469 18.2617 28.4946 18.2617 29.0469V29.7135C18.2617 30.2658 18.7094 30.7135 19.2617 30.7135H29.9036C30.4559 30.7135 30.9036 30.2658 30.9036 29.7135V29.0469C30.9036 28.4946 30.4559 28.0469 29.9036 28.0469H19.2617Z" fill="#2CAAE2"/>
<path fill-rule="evenodd" clip-rule="evenodd" d="M19.2617 35.554C18.7094 35.554 18.2617 36.0017 18.2617 36.554V37.2206C18.2617 37.7729 18.7094 38.2206 19.2617 38.2206H26.818C27.3703 38.2206 27.818 37.7729 27.818 37.2206V36.554C27.818 36.0017 27.3703 35.554 26.818 35.554H19.2617Z" fill="#2CAAE2"/>
<path fill-rule="evenodd" clip-rule="evenodd" d="M39.7258 50.9989C44.663 50.9989 48.6654 46.9965 48.6654 42.0593C48.6654 37.122 44.663 33.1196 39.7258 33.1196C34.7886 33.1196 30.7861 37.122 30.7861 42.0593C30.7861 46.9965 34.7886 50.9989 39.7258 50.9989ZM39.7258 52.9989C45.7676 52.9989 50.6654 48.1011 50.6654 42.0593C50.6654 36.0175 45.7676 31.1196 39.7258 31.1196C33.684 31.1196 28.7861 36.0175 28.7861 42.0593C28.7861 48.1011 33.684 52.9989 39.7258 52.9989Z" fill="#2CAAE2"/>
</svg>
