<svg width="46" height="52" viewBox="0 0 46 52" fill="none" xmlns="http://www.w3.org/2000/svg">
<path d="M23.5083 28.3793C23.4121 28.3584 23.3134 28.3547 23.2159 28.3693C22.2393 28.2556 21.5026 27.4293 21.5009 26.4464C21.5009 25.9754 21.119 25.5935 20.6479 25.5935C20.1769 25.5935 19.795 25.9754 19.795 26.4464C19.7975 28.0877 20.8953 29.5254 22.4779 29.9598V30.8127C22.4779 31.2837 22.8598 31.6656 23.3309 31.6656C23.8019 31.6656 24.1838 31.2837 24.1838 30.8127V30.0114C26.0105 29.6291 27.252 27.9278 27.06 26.0716C26.8676 24.2154 25.3037 22.8048 23.4375 22.8043C22.368 22.8043 21.5009 21.9372 21.5009 20.8677C21.5009 19.7982 22.368 18.9311 23.4375 18.9311C24.507 18.9311 25.3741 19.7982 25.3741 20.8677C25.3741 21.3388 25.756 21.7207 26.227 21.7207C26.6981 21.7207 27.08 21.3388 27.08 20.8677C27.0775 19.1444 25.8701 17.658 24.1838 17.3023V16.526C24.1838 16.055 23.8019 15.6731 23.3309 15.6731C22.8598 15.6731 22.4779 16.055 22.4779 16.526V17.3544C20.7179 17.835 19.5851 19.5438 19.8275 21.3521C20.0699 23.1604 21.6129 24.5102 23.4375 24.5098C24.4928 24.5098 25.3537 25.3548 25.3728 26.4098C25.3924 27.4647 24.5628 28.3409 23.5083 28.3793Z" fill="#2CAAE2"/>
<path d="M11.0703 23.7216C11.0703 30.5526 16.6077 36.0901 23.4387 36.0901C30.2697 36.0901 35.8072 30.5526 35.8072 23.7216C35.8072 16.8906 30.2697 11.3532 23.4387 11.3532C16.6111 11.3607 11.0782 16.894 11.0703 23.7216ZM23.4387 13.0591C29.3277 13.0591 34.1013 17.8327 34.1013 23.7216C34.1013 29.6106 29.3277 34.3842 23.4387 34.3842C17.5498 34.3842 12.7762 29.6106 12.7762 23.7216C12.7829 17.8356 17.5527 13.0657 23.4387 13.0591Z" fill="#2CAAE2"/>
<path d="M40.0122 38.1939L33.3307 41.3508C32.4082 39.6349 30.6386 38.5429 28.6912 38.488L22.5232 38.3185C21.5466 38.2905 20.5883 38.0432 19.7199 37.5946L19.0923 37.2694C15.8788 35.5943 12.0485 35.5985 8.83831 37.2802L8.87746 35.8583C8.89037 35.3873 8.51929 34.995 8.04826 34.9821L1.28473 34.7959C0.8137 34.783 0.421798 35.1541 0.408887 35.6251L0.000326926 50.4674C-0.0125837 50.9384 0.358494 51.3308 0.829526 51.3437L7.59306 51.5298H7.61638C8.07866 51.5298 8.45682 51.1621 8.46932 50.7002L8.48889 49.9901L10.246 49.0493C10.9357 48.6782 11.742 48.5899 12.4954 48.8032L22.988 51.7481C23.0063 51.7535 23.0246 51.7576 23.0434 51.7618C23.8018 51.9205 24.5748 52 25.3494 51.9996C26.9903 52.0004 28.6121 51.6469 30.1034 50.9622C30.1401 50.9455 30.1755 50.9259 30.2092 50.9039L45.4226 41.0634C45.8016 40.8181 45.924 40.3204 45.702 39.9273C44.5726 37.9232 42.0675 37.1598 40.0122 38.1939ZM1.72911 49.6619L2.09061 36.5247L7.14868 36.6638L6.78718 49.8015L1.72911 49.6619ZM29.3351 49.4387C27.4822 50.275 25.4127 50.5057 23.4211 50.0988L12.9568 47.1614C11.779 46.8287 10.5184 46.9665 9.44095 47.5458L8.54303 48.0269L8.78334 39.2922C11.6287 37.3997 15.2778 37.2052 18.3081 38.7841L18.9357 39.1093C20.0327 39.6757 21.2426 39.9881 22.4766 40.0239L28.645 40.1934C30.3775 40.2434 31.8489 41.477 32.2004 43.1745L23.0126 42.9209C22.5415 42.908 22.1496 43.2795 22.1363 43.7501C22.1234 44.2211 22.4949 44.6135 22.9655 44.6264L33.105 44.9054H33.1287C33.5906 44.905 33.9683 44.5372 33.9808 44.0758C33.9912 43.7051 33.9637 43.334 33.8984 42.9692L40.7514 39.7311C40.7581 39.7282 40.7648 39.7249 40.7714 39.7216C41.7435 39.2297 42.9188 39.3942 43.7184 40.1343L29.3351 49.4387Z" fill="#2CAAE2"/>
<path d="M24.2908 8.95584V0.852938C24.2908 0.381906 23.9089 0 23.4379 0C22.9669 0 22.585 0.381906 22.585 0.852938V8.95584C22.585 9.42688 22.9669 9.80878 23.4379 9.80878C23.9089 9.80878 24.2908 9.42688 24.2908 8.95584Z" fill="#2CAAE2"/>
<path d="M30.6893 8.95636V5.11814C30.6893 4.6471 30.3074 4.2652 29.8363 4.2652C29.3653 4.2652 28.9834 4.6471 28.9834 5.11814V8.95636C28.9834 9.42739 29.3653 9.80929 29.8363 9.80929C30.3074 9.80929 30.6893 9.42739 30.6893 8.95636Z" fill="#2CAAE2"/>
<path d="M17.8944 8.95636V5.11814C17.8944 4.6471 17.5124 4.2652 17.0414 4.2652C16.5704 4.2652 16.1885 4.6471 16.1885 5.11814V8.95636C16.1885 9.42739 16.5704 9.80929 17.0414 9.80929C17.5124 9.80929 17.8944 9.42739 17.8944 8.95636Z" fill="#2CAAE2"/>
</svg>
