<svg width="45" height="54" viewBox="0 0 45 54" fill="none" xmlns="http://www.w3.org/2000/svg">
<path fill-rule="evenodd" clip-rule="evenodd" d="M23.2543 0.537675C23.214 0.460633 23.163 0.387601 23.1012 0.320752C22.8926 0.095409 22.6044 -0.0122158 22.32 0.00110014C22.0355 -0.0122158 21.7474 0.095409 21.5388 0.320752C21.4769 0.387601 21.4259 0.460633 21.3857 0.537675C18.3462 3.19233 10.7943 7.65692 1.17255 5.97136C0.881587 5.92039 0.58297 6.00067 0.356787 6.19068C0.130604 6.38068 0 6.66097 0 6.95637V30.8764C0 30.9028 0.00105041 30.9293 0.00314879 30.9556C0.237323 33.8996 2.07502 40.8075 7.6553 45.2718C12.8155 49.3999 18.8978 52.5519 21.6359 53.7713C21.8265 53.9284 22.071 54.0109 22.32 53.9991C22.569 54.0109 22.8134 53.9284 23.004 53.7713C25.7421 52.5519 31.8245 49.3999 36.9847 45.2718C42.565 40.8075 44.4027 33.8996 44.6368 30.9556C44.6389 30.9293 44.64 30.9028 44.64 30.8764V6.95637C44.64 6.66097 44.5094 6.38068 44.2832 6.19068C44.057 6.00067 43.7584 5.92039 43.4674 5.97136C33.8457 7.65692 26.2938 3.19233 23.2543 0.537675ZM22.32 2.36737C18.9012 5.18913 11.4586 9.35237 2 8.12041V30.8356C2.22054 33.4615 3.92041 39.7226 8.90469 43.71C13.8195 47.6419 19.6376 50.678 22.32 51.8863C25.0023 50.678 30.8204 47.6419 35.7353 43.71C40.7196 39.7226 42.4194 33.4615 42.64 30.8355V8.12041C33.1813 9.35237 25.7388 5.18913 22.32 2.36737Z" fill="#2CAAE2"/>
<path fill-rule="evenodd" clip-rule="evenodd" d="M33.6427 18.8398C34.0611 19.2003 34.108 19.8317 33.7475 20.2501L20.7948 35.2828C20.6165 35.4898 20.3612 35.6148 20.0884 35.6288C19.8156 35.6428 19.5489 35.5445 19.3504 35.3569L10.7467 27.226C10.3453 26.8466 10.3275 26.2137 10.7068 25.8123C11.0861 25.4109 11.7191 25.3931 12.1205 25.7724L19.9631 33.1841L32.2324 18.9446C32.5929 18.5262 33.2243 18.4793 33.6427 18.8398Z" fill="#2CAAE2"/>
</svg>
