<svg width="54" height="54" viewBox="0 0 54 54" fill="none" xmlns="http://www.w3.org/2000/svg">
<path fill-rule="evenodd" clip-rule="evenodd" d="M26.6793 21.9639C28.1687 21.9639 29.3761 20.7564 29.3761 19.267C29.3761 17.7776 28.1687 16.5702 26.6793 16.5702C25.1898 16.5702 23.9824 17.7776 23.9824 19.267C23.9824 20.7564 25.1898 21.9639 26.6793 21.9639ZM26.6793 23.9639C29.2733 23.9639 31.3761 21.861 31.3761 19.267C31.3761 16.673 29.2733 14.5702 26.6793 14.5702C24.0853 14.5702 21.9824 16.673 21.9824 19.267C21.9824 21.861 24.0853 23.9639 26.6793 23.9639Z" fill="#2CAAE2"/>
<path fill-rule="evenodd" clip-rule="evenodd" d="M35.4547 24.7958C36.3384 24.7958 37.0548 24.0793 37.0548 23.1956C37.0548 22.3118 36.3384 21.5954 35.4547 21.5954C34.5709 21.5954 33.8545 22.3118 33.8545 23.1956C33.8545 24.0793 34.5709 24.7958 35.4547 24.7958ZM35.4547 26.7958C37.443 26.7958 39.0548 25.1839 39.0548 23.1956C39.0548 21.2073 37.443 19.5954 35.4547 19.5954C33.4663 19.5954 31.8545 21.2073 31.8545 23.1956C31.8545 25.1839 33.4663 26.7958 35.4547 26.7958Z" fill="#2CAAE2"/>
<path fill-rule="evenodd" clip-rule="evenodd" d="M17.9049 24.7958C18.7886 24.7958 19.505 24.0793 19.505 23.1956C19.505 22.3118 18.7886 21.5954 17.9049 21.5954C17.0211 21.5954 16.3047 22.3118 16.3047 23.1956C16.3047 24.0793 17.0211 24.7958 17.9049 24.7958ZM17.9049 26.7958C19.8932 26.7958 21.505 25.1839 21.505 23.1956C21.505 21.2073 19.8932 19.5954 17.9049 19.5954C15.9165 19.5954 14.3047 21.2073 14.3047 23.1956C14.3047 25.1839 15.9165 26.7958 17.9049 26.7958Z" fill="#2CAAE2"/>
<path fill-rule="evenodd" clip-rule="evenodd" d="M21.6632 30.2017C20.619 31.8333 20.237 33.8306 20.2177 35.1574C20.2096 35.7096 19.7554 36.1507 19.2032 36.1427C18.651 36.1346 18.2098 35.6804 18.2179 35.1282C18.2412 33.5322 18.6848 31.1454 19.9787 29.1236C21.3051 27.051 23.5281 25.3745 26.9619 25.3745C30.4002 25.3745 32.5781 27.0566 33.839 29.1459C35.0648 31.1771 35.4207 33.57 35.3858 35.1647C35.3737 35.7168 34.9163 36.1546 34.3642 36.1425C33.812 36.1304 33.3742 35.673 33.3863 35.1209C33.4154 33.7928 33.1057 31.8015 32.1267 30.1793C31.1827 28.6152 29.6165 27.3745 26.9619 27.3745C24.3027 27.3745 22.675 28.6208 21.6632 30.2017Z" fill="#2CAAE2"/>
<path fill-rule="evenodd" clip-rule="evenodd" d="M15.3453 32.023C14.8256 32.8351 14.6288 33.8489 14.619 34.5201C14.611 35.0723 14.1568 35.5134 13.6046 35.5054C13.0523 35.4973 12.6112 35.0431 12.6192 34.4909C12.633 33.5506 12.8914 32.1472 13.6608 30.9449C14.4627 29.6919 15.8219 28.6711 17.8889 28.6711C18.8397 28.6711 19.6596 28.8883 20.3491 29.2749C20.8308 29.545 21.0024 30.1545 20.7323 30.6362C20.4622 31.118 19.8527 31.2895 19.371 31.0194C19.0042 30.8138 18.5258 30.6711 17.8889 30.6711C16.5965 30.6711 15.8326 31.2617 15.3453 32.023Z" fill="#2CAAE2"/>
<path fill-rule="evenodd" clip-rule="evenodd" d="M38.5697 32.023C39.0894 32.8351 39.2862 33.8489 39.296 34.5201C39.3041 35.0723 39.7583 35.5134 40.3105 35.5054C40.8627 35.4973 41.3038 35.0431 41.2958 34.4909C41.2821 33.5506 41.0237 32.1472 40.2542 30.9449C39.4523 29.6919 38.0932 28.6711 36.0261 28.6711C35.0754 28.6711 34.2554 28.8883 33.5659 29.2749C33.0842 29.545 32.9126 30.1545 33.1828 30.6362C33.4529 31.118 34.0624 31.2895 34.5441 31.0194C34.9108 30.8138 35.3893 30.6711 36.0261 30.6711C37.3185 30.6711 38.0825 31.2617 38.5697 32.023Z" fill="#2CAAE2"/>
<path fill-rule="evenodd" clip-rule="evenodd" d="M27 52C40.8071 52 52 40.8071 52 27C52 13.1929 40.8071 2 27 2C13.1929 2 2 13.1929 2 27C2 40.8071 13.1929 52 27 52ZM27 54C41.9117 54 54 41.9117 54 27C54 12.0883 41.9117 0 27 0C12.0883 0 0 12.0883 0 27C0 41.9117 12.0883 54 27 54Z" fill="#2CAAE2"/>
</svg>
