<svg width="199" height="157" viewBox="0 0 199 157" fill="none" xmlns="http://www.w3.org/2000/svg">
<circle cx="7" cy="7" r="7" fill="#EABE61"/>
<circle cx="7" cy="51.0005" r="7" fill="#EABE61"/>
<circle cx="7" cy="95.001" r="7" fill="#EABE61"/>
<circle cx="7" cy="139" r="7" fill="#EABE61"/>
<circle cx="51" cy="7" r="7" fill="#EABE61"/>
<circle cx="51" cy="51.0005" r="7" fill="#EABE61"/>
<circle cx="51" cy="95.001" r="7" fill="#EABE61"/>
<circle cx="51" cy="139" r="7" fill="#EABE61"/>
<circle cx="95" cy="7" r="7" fill="#EABE61"/>
<circle cx="95" cy="51.0005" r="7" fill="#EABE61"/>
<circle cx="95" cy="95.001" r="7" fill="#EABE61"/>
<circle cx="95" cy="139" r="7" fill="#EABE61"/>
<circle cx="139" cy="7" r="7" fill="#EABE61"/>
<circle cx="139" cy="51.0005" r="7" fill="#EABE61"/>
<circle cx="139" cy="95.001" r="7" fill="#EABE61"/>
<circle cx="139" cy="139" r="7" fill="#EABE61"/>
<circle cx="183" cy="7" r="7" fill="#EABE61"/>
<circle cx="183" cy="51.0005" r="7" fill="#EABE61"/>
<circle cx="183" cy="95.001" r="7" fill="#EABE61"/>
<circle cx="183" cy="139" r="7" fill="#EABE61"/>
</svg>
