<svg width="54" height="54" viewBox="0 0 54 54" fill="#2CAAE2" xmlns="http://www.w3.org/2000/svg">
<path d="M9.1123 10.0583C9.1123 9.4645 9.59365 8.98315 10.1874 8.98315H33.026C33.6198 8.98315 34.1012 9.4645 34.1012 10.0583C34.1012 10.652 33.6198 11.1334 33.026 11.1334H10.1874C9.59365 11.1334 9.1123 10.652 9.1123 10.0583Z"/>
<path d="M9.1123 16.1496C9.1123 15.5558 9.59365 15.0745 10.1874 15.0745H33.026C33.6198 15.0745 34.1012 15.5558 34.1012 16.1496C34.1012 16.7434 33.6198 17.2247 33.026 17.2247H10.1874C9.59365 17.2247 9.1123 16.7434 9.1123 16.1496Z" />
<path d="M9.1123 22.2009C9.1123 21.6071 9.59365 21.1257 10.1874 21.1257H33.026C33.6198 21.1257 34.1012 21.6071 34.1012 22.2009C34.1012 22.7946 33.6198 23.276 33.026 23.276H10.1874C9.59365 23.276 9.1123 22.7946 9.1123 22.2009Z"/>
<path d="M9.1123 28.2529C9.1123 27.6591 9.59365 27.1777 10.1874 27.1777H33.026C33.6198 27.1777 34.1012 27.6591 34.1012 28.2529C34.1012 28.8466 33.6198 29.328 33.026 29.328H10.1874C9.59365 29.328 9.1123 28.8466 9.1123 28.2529Z" />
<path d="M9.1123 34.3049C9.1123 33.7111 9.59365 33.2297 10.1874 33.2297H33.026C33.6198 33.2297 34.1012 33.7111 34.1012 34.3049C34.1012 34.8986 33.6198 35.38 33.026 35.38H10.1874C9.59365 35.38 9.1123 34.8986 9.1123 34.3049Z" />
<path fill-rule="evenodd" clip-rule="evenodd" d="M22.9096 40.551C23.4851 40.1841 24.2416 40.2881 24.6966 40.7968L27.733 44.1912H32.5602C33.3295 44.1912 33.9531 44.8148 33.9531 45.584C33.9531 46.3533 33.3295 46.9769 32.5602 46.9769H27.1102C26.7139 46.9769 26.3363 46.808 26.0721 46.5127L23.4094 43.5361L19.0179 46.3364C18.3693 46.75 17.5082 46.5595 17.0946 45.9108C16.681 45.2622 16.8715 44.4011 17.5201 43.9876L22.9096 40.551Z" />
<path fill-rule="evenodd" clip-rule="evenodd" d="M48.4201 20.9394H44.9675V46.3682H48.4201V20.9394ZM43.1104 19.0823V48.2254H50.2772V19.0823H43.1104Z" />
<path d="M46.6508 52.945L43.124 48.2249H50.2873L46.6508 52.945Z" />
<path fill-rule="evenodd" clip-rule="evenodd" d="M43.1104 13.7212V16.8299H50.2772V13.7212H43.1104Z" />
<path fill-rule="evenodd" clip-rule="evenodd" d="M48.4201 9.61128V8.29951C48.4201 7.3461 47.6472 6.57321 46.6938 6.57321C45.7404 6.57321 44.9675 7.3461 44.9675 8.29951V9.61128H48.4201ZM46.6938 4.71606C44.7147 4.71606 43.1104 6.32043 43.1104 8.29951V11.4684H50.2772V8.29951C50.2772 6.32043 48.6729 4.71606 46.6938 4.71606Z" />
<path fill-rule="evenodd" clip-rule="evenodd" d="M35.7133 2.85714H6.71429C5.68861 2.85714 4.85714 3.68861 4.85714 4.71429V49.2857C4.85714 50.3114 5.68861 51.1429 6.71428 51.1429H35.7133C36.739 51.1429 37.5705 50.3114 37.5705 49.2857V4.71429C37.5705 3.68861 36.739 2.85714 35.7133 2.85714ZM6.71429 1C4.66294 1 3 2.66294 3 4.71429V49.2857C3 51.3371 4.66294 53 6.71428 53H35.7133C37.7647 53 39.4276 51.3371 39.4276 49.2857V4.71429C39.4276 2.66294 37.7647 1 35.7133 1H6.71429Z" />
</svg>
