<svg width="24" height="24" viewBox="0 0 24 24" fill="none" xmlns="http://www.w3.org/2000/svg">
<path fill-rule="evenodd" clip-rule="evenodd" d="M7.54433 4.3543C6.49345 5.1952 5.71648 6.39889 5.21037 7.83884C4.77996 9.06338 5.06033 10.4437 5.60804 11.7403C5.87591 12.3744 6.19225 12.9519 6.47637 13.4336C6.57412 13.5994 6.68081 13.7738 6.78207 13.9393C6.94028 14.1979 7.08524 14.4349 7.16219 14.5834C7.16096 14.581 7.1641 14.5872 7.17423 14.604C7.18388 14.6201 7.19733 14.6416 7.21525 14.6692C7.25133 14.7248 7.29966 14.7958 7.36089 14.8826C7.48331 15.0563 7.64578 15.2769 7.84141 15.5358C8.23207 16.053 8.74016 16.7036 9.29268 17.4005C10.093 18.4098 10.9794 19.5074 11.723 20.4202C12.4665 19.5074 13.353 18.4098 14.1533 17.4005C14.7058 16.7036 15.2139 16.053 15.6046 15.5358C15.8002 15.2769 15.9626 15.0563 16.0851 14.8826C16.1463 14.7958 16.1946 14.7248 16.2307 14.6692C16.2486 14.6416 16.2621 14.6201 16.2717 14.604C16.2819 14.5872 16.285 14.581 16.2838 14.5834C16.3607 14.4349 16.5057 14.1979 16.6639 13.9393C16.7652 13.7738 16.8718 13.5994 16.9696 13.4336C17.2537 12.9519 17.5701 12.3744 17.8379 11.7403C18.3856 10.4437 18.666 9.06338 18.2356 7.83884C17.7295 6.39889 16.9525 5.19521 15.9016 4.3543C14.8618 3.52231 13.4985 3 11.7229 3C9.94736 3 8.58407 3.52231 7.54433 4.3543ZM6.29477 2.7927C7.71305 1.65781 9.52471 1 11.7229 1C13.9212 1 15.7329 1.65781 17.1512 2.7927C18.5583 3.91866 19.5224 5.4686 20.1224 7.17565C20.7982 9.09811 20.3001 11.0511 19.6803 12.5185C19.3644 13.2664 18.9996 13.9285 18.6923 14.4497C18.5297 14.7253 18.4009 14.9342 18.2998 15.098C18.1889 15.2779 18.1114 15.4035 18.0595 15.5036C17.9214 15.7701 17.5776 16.242 17.2004 16.7414C16.7959 17.2767 16.2768 17.9413 15.7204 18.643C14.607 20.0474 13.3311 21.6173 12.4958 22.6346C12.3059 22.8659 12.0223 23 11.7229 23C11.4236 23 11.14 22.8659 10.9501 22.6346C10.1148 21.6173 8.83895 20.0474 7.72549 18.643C7.16917 17.9413 6.65 17.2767 6.24557 16.7413C5.86836 16.242 5.52458 15.7701 5.38647 15.5036C5.3346 15.4035 5.25711 15.2779 5.14616 15.098C5.04508 14.9342 4.91622 14.7253 4.75367 14.4497C4.44632 13.9285 4.08158 13.2664 3.76567 12.5185C3.14582 11.0511 2.64781 9.09811 3.32352 7.17565C3.92352 5.46861 4.88764 3.91867 6.29477 2.7927Z" fill="#2CAAE2"/>
<path fill-rule="evenodd" clip-rule="evenodd" d="M11.7227 10C12.2749 10 12.7227 9.55228 12.7227 9C12.7227 8.44772 12.2749 8 11.7227 8C11.1704 8 10.7227 8.44772 10.7227 9C10.7227 9.55228 11.1704 10 11.7227 10ZM11.7227 12C13.3795 12 14.7227 10.6569 14.7227 9C14.7227 7.34315 13.3795 6 11.7227 6C10.0658 6 8.72266 7.34315 8.72266 9C8.72266 10.6569 10.0658 12 11.7227 12Z" fill="#2CAAE2"/>
</svg>
