<svg width="224" height="56" viewBox="0 0 224 56" fill="none" xmlns="http://www.w3.org/2000/svg">
<path fill-rule="evenodd" clip-rule="evenodd" d="M198.01 7.76846L188.135 2.87009V42.4134L214.184 55.3368L214.184 38.875V15.7809L198.01 7.7683V7.76846ZM198.01 7.76846V38.8724L214.184 38.875L214.184 15.791L198.01 7.76846Z" fill="#E6E6E6"/>
<path d="M198.008 -0.663086L224.059 12.2579V51.8012L214.184 46.9053V15.7911L198.01 7.76853L198.008 -0.663086Z" fill="#2CAAE2"/>
<path d="M93.3367 11.545C88.1487 11.545 85.6242 13.5274 84.5163 16.9929H86.9573C87.9564 14.5438 89.9244 13.6077 93.3367 13.6077C98.9673 13.6077 100.66 16.1673 100.66 23.816C100.66 31.4672 98.9673 34.0268 93.3367 34.0268C87.7338 34.0268 86.0138 31.4672 86.0138 23.816C86.0138 22.8524 86.0416 21.9716 86.0972 21.1736H83.7954C83.7397 21.9992 83.7119 22.88 83.7119 23.816C83.7119 31.3844 85.3207 36.0896 93.3367 36.0896C101.353 36.0896 102.961 31.3844 102.961 23.816C102.961 16.2477 101.353 11.545 93.3367 11.545Z" fill="#2CAAE2"/>
<path d="M19.2702 16.8022V19.9038C19.2702 21.9164 17.9396 23.688 15.997 24.2677L2.35032 28.3329V35.3518H0.0585938V12.2476H14.6766C17.2137 12.2451 19.2702 14.2853 19.2702 16.8022ZM16.9784 16.0268C16.9784 15.0833 16.2095 14.3179 15.2558 14.3179H2.35032V25.959L15.7541 21.9666C16.4801 21.7508 16.9784 21.0858 16.9784 20.3304V16.0268Z" fill="#2CAAE2"/>
<path d="M39.3263 18.047V35.3468H37.0346V32.7747C35.8761 34.978 33.721 36.0696 30.0304 36.0696C29.9545 36.0696 29.8786 36.067 29.8002 36.067C23.4689 35.9893 20.4284 32.8876 20.5043 26.5815C20.5827 20.2728 23.7143 17.2414 30.0279 17.3192C33.6931 17.3644 35.866 18.4284 37.0346 20.5363V18.047H39.3263ZM37.027 26.7797C37.0903 21.7383 35.0515 19.4522 29.9975 19.3895C29.9267 19.3895 29.8559 19.3895 29.7825 19.3895C24.8854 19.3895 22.8593 21.6404 22.796 26.6091C22.7353 31.6505 24.7741 33.9366 29.8281 33.9993C34.8668 34.062 36.9638 31.8211 37.027 26.7797Z" fill="#2CAAE2"/>
<path d="M43.9905 22.9404C43.9905 24.8475 44.9341 25.6631 46.8565 25.6631H55.9247C59.1043 25.6631 60.8573 27.2942 60.8573 30.4485C60.8573 33.6054 59.1043 35.3419 55.9247 35.3419L41.7292 35.3469V33.2741H55.6971C57.617 33.2741 58.5655 32.3532 58.5655 30.446C58.5655 28.5389 57.617 27.7308 55.6971 27.7308H46.6288C43.4467 27.7308 41.6963 26.0922 41.6963 22.9353C41.6963 19.781 43.4467 18.042 46.6288 18.042L60.8775 18.0445V20.1173H46.859C44.9341 20.1198 43.9905 21.0332 43.9905 22.9404Z" fill="#2CAAE2"/>
<path d="M63.1543 20.1305H63.1821V20.0471C63.1821 20.0774 63.1543 20.1027 63.1543 20.1305Z" fill="#2CAAE2"/>
<path d="M81.6482 30.4485C81.6482 33.6129 79.9003 35.3469 76.7384 35.3469H60.3447C60.9822 34.8802 61.4274 34.1625 61.6474 33.2842H76.488C78.4307 33.2842 79.3742 32.3482 79.3742 30.4485C79.3742 28.5489 78.4307 27.7233 76.488 27.7233H67.4172C64.2553 27.7233 62.4796 26.0997 62.4796 22.9354C62.4796 21.8061 62.7022 20.8726 63.1449 20.1273C63.1449 20.0997 63.1727 20.0721 63.1727 20.0445C63.9771 18.7246 65.4189 18.0345 67.4172 18.0345H98.9576C99.1245 18.6393 99.2358 19.3544 99.3193 20.1248H67.6398C65.725 20.1248 64.784 21.0332 64.784 22.9329C64.784 24.8325 65.7275 25.6581 67.6398 25.6581H76.7384C79.9003 25.6606 81.6482 27.2842 81.6482 30.4485Z" fill="#2CAAE2"/>
<path d="M111.033 14.3255H113.641V12.2628H111.615C109.063 12.2628 107.011 14.3004 107.011 16.8299V18.042H103.559C103.726 18.7019 103.837 19.3895 103.918 20.1323H107.011V35.3494H109.313V20.1323H113.641V18.042H109.313V16.0595C109.313 15.0959 110.062 14.3255 111.033 14.3255Z" fill="#2CAAE2"/>
<path d="M119.225 16.0445V18.047H123.553V20.1198H119.225V35.3469H116.936V20.1198H114.589V18.047H116.936V16.8199C116.936 14.3029 118.99 12.2628 121.527 12.2628H123.553V14.3356H120.948C119.997 14.3356 119.225 15.1009 119.225 16.0445Z" fill="#2CAAE2"/>
<path d="M128.42 13.7961C128.42 14.9705 128.028 15.362 126.842 15.362H126.457C125.274 15.362 124.879 14.9705 124.879 13.7961C124.879 12.6217 125.274 12.2302 126.457 12.2302H126.842C128.028 12.2302 128.42 12.6217 128.42 13.7961ZM125.504 35.3494V18.0495H127.795V35.3494H125.504Z" fill="#2CAAE2"/>
<path d="M146.329 29.8413L148.606 30.17C147.589 34.1298 144.624 36.0721 139.598 36.0721C133.264 36.0721 130.188 32.9956 130.188 26.6694C130.188 20.3431 133.267 17.2666 139.598 17.2666C144.624 17.2666 147.589 19.2089 148.606 23.1687L146.329 23.4975C145.527 20.7296 143.42 19.3394 139.598 19.3394C134.547 19.3394 132.483 21.6104 132.483 26.6694C132.483 31.7283 134.547 33.9993 139.598 33.9993C143.42 33.9993 145.53 32.6091 146.329 29.8413Z" fill="#2CAAE2"/>
<path d="M152.494 27.7258C152.64 29.7308 153.187 31.1862 154.158 32.1498C155.264 33.254 156.996 33.9968 159.452 33.9968C159.518 33.9968 159.589 33.9993 159.657 33.9968C162.22 33.9667 164.003 33.1812 165.113 32.0194C165.483 31.6354 165.779 31.1737 166.019 30.6392L168.354 30.9754C167.989 31.9968 167.471 32.865 166.78 33.5852C165.222 35.2163 162.898 36.0269 159.685 36.0645C156.465 36.1047 154.13 35.3493 152.532 33.7559C150.974 32.2051 150.199 29.9315 150.162 26.8023C150.086 20.4936 153.126 17.392 159.457 17.3167C159.533 17.3142 159.612 17.3142 159.688 17.3142C162.784 17.3142 165.05 18.0695 166.608 19.6254C168.007 21.0181 168.771 22.998 168.941 25.6505C168.958 25.9516 168.976 26.2577 168.981 26.579C168.986 26.9729 168.976 27.3544 168.958 27.7232H152.494V27.7258ZM166.644 25.6555C166.495 23.653 165.951 22.2 164.984 21.2364C163.846 20.1022 162.038 19.3594 159.485 19.3895C154.826 19.4447 152.737 21.3995 152.486 25.653H166.644V25.6555Z" fill="#2CAAE2"/>
<path d="M170.519 14.3908L174.376 15.6455L175.573 16.5037L175.176 15.116V11.0909H177.273V15.116L176.843 16.5338L178.004 15.6756L181.896 14.4535L182.531 16.4334L178.669 17.6882L177.24 17.7534L178.373 18.5464L180.735 21.8136L179.041 23.0357L176.645 19.8011L176.18 18.4485L175.682 19.7685L173.281 23.0382L171.586 21.8161L173.982 18.5489L175.145 17.7233L173.746 17.6555L169.854 16.4008L170.519 14.3908Z" fill="#2CAAE2"/>
<path d="M80.1328 43.23L80.918 43.4789L81.4198 43.4869L80.9989 43.7841L80.5132 44.4425L81.1689 44.9163L81.6546 44.2578L81.8084 43.7841L81.9702 44.2739L82.4478 44.9324L83.1035 44.4586L82.6178 43.8001L82.2131 43.511H82.7311L83.5163 43.2541L83.2653 42.4912L82.4802 42.7401L82.0755 43.0373L82.2374 42.5474V41.7284H81.4279V42.5474L81.5817 43.0292L81.1689 42.7161L80.3837 42.4671L80.1328 43.23Z" fill="#2CAAE2"/>
<path d="M85.0913 45.0046C85.0913 46.7231 85.9655 47.7108 87.5358 47.7108C89.2356 47.7108 89.9722 46.7713 89.9722 45.5507C89.9722 44.3783 89.1304 43.495 87.8757 43.495C86.8073 43.495 86.1031 44.1374 85.925 45.2455H85.6012L85.925 44.5228C86.0869 43.7038 86.5725 43.3023 87.6734 43.0694C88.7661 42.8365 89.8508 42.5394 89.9965 41.4072H88.5395C88.4666 41.7123 88.1995 41.8649 87.1877 42.1861C85.8764 42.6036 85.0913 43.3183 85.0913 45.0046ZM86.3864 45.5989C86.3864 44.9484 86.8073 44.6192 87.5358 44.6192C88.2643 44.6192 88.6771 44.9484 88.6771 45.5989C88.6771 46.2493 88.2643 46.5866 87.5358 46.5866C86.8073 46.5866 86.3864 46.2493 86.3864 45.5989Z" fill="#2CAAE2"/>
<path d="M95.503 43.495C94.3536 43.495 93.6818 44.1133 93.4956 45.0368H92.8723V43.5753H91.5772V47.6305H92.8723V46.161H93.4956C93.6818 47.0925 94.3536 47.7108 95.503 47.7108C96.8629 47.7108 97.559 46.8355 97.559 45.5989C97.559 44.3703 96.8629 43.495 95.503 43.495ZM95.503 46.5866C94.9688 46.5866 94.734 46.2654 94.734 45.5989C94.734 44.9404 94.9688 44.6192 95.503 44.6192C96.0291 44.6192 96.2639 44.9404 96.2639 45.5989C96.2639 46.2654 96.0291 46.5866 95.503 46.5866Z" fill="#2CAAE2"/>
<path d="M99.1363 43.5753V49.1562H100.431V47.3816L100.189 46.6588H100.512C100.723 47.1969 101.111 47.7108 102.123 47.7108C103.305 47.7108 103.896 46.7552 103.896 45.6069C103.896 44.4586 103.305 43.495 102.123 43.495C101.111 43.495 100.723 44.0089 100.512 44.5469H100.189L100.431 43.8242V43.5753H99.1363ZM100.431 45.6069C100.431 44.9163 100.82 44.6192 101.516 44.6192C102.212 44.6192 102.601 44.9163 102.601 45.6069C102.601 46.2975 102.212 46.5866 101.516 46.5866C100.82 46.5866 100.431 46.2975 100.431 45.6069Z" fill="#2CAAE2"/>
<path d="M105.316 45.5989C105.316 47.0202 106.336 47.7108 107.623 47.7108C108.902 47.7108 109.922 47.0202 109.922 45.5989C109.922 44.1856 108.902 43.495 107.623 43.495C106.336 43.495 105.316 44.1856 105.316 45.5989ZM106.611 45.5989C106.611 44.9243 107.008 44.6192 107.623 44.6192C108.23 44.6192 108.627 44.9243 108.627 45.5989C108.627 46.2814 108.23 46.5866 107.623 46.5866C107.008 46.5866 106.611 46.2814 106.611 45.5989Z" fill="#2CAAE2"/>
<path d="M118.702 43.5753H114.541V47.6305H115.836V44.6995H117.407V47.6305H118.702V43.5753Z" fill="#2CAAE2"/>
<path d="M120.44 43.5753V49.1562H121.736V47.3816L121.493 46.6588H121.816C122.027 47.1969 122.415 47.7108 123.427 47.7108C124.609 47.7108 125.2 46.7552 125.2 45.6069C125.2 44.4586 124.609 43.495 123.427 43.495C122.415 43.495 122.027 44.0089 121.816 44.5469H121.493L121.736 43.8242V43.5753H120.44ZM121.736 45.6069C121.736 44.9163 122.124 44.6192 122.82 44.6192C123.516 44.6192 123.905 44.9163 123.905 45.6069C123.905 46.2975 123.516 46.5866 122.82 46.5866C122.124 46.5866 121.736 46.2975 121.736 45.6069Z" fill="#2CAAE2"/>
<path d="M126.62 45.5989C126.62 47.0202 127.64 47.7108 128.927 47.7108C130.206 47.7108 131.226 47.0202 131.226 45.5989C131.226 44.1856 130.206 43.495 128.927 43.495C127.64 43.495 126.62 44.1856 126.62 45.5989ZM127.915 45.5989C127.915 44.9243 128.312 44.6192 128.927 44.6192C129.534 44.6192 129.931 44.9243 129.931 45.5989C129.931 46.2814 129.534 46.5866 128.927 46.5866C128.312 46.5866 127.915 46.2814 127.915 45.5989Z" fill="#2CAAE2"/>
<path d="M136.723 43.5753H132.563V47.6305H133.858V44.6995H135.428V47.6305H136.723V43.5753Z" fill="#2CAAE2"/>
<path d="M141.789 43.5753L140.898 45.8077V46.4501H140.574V45.8077L139.676 43.5753H138.219L140.089 47.3896V48.1605L138.688 48.1364V49.2606L140.688 49.3168C141.133 49.3329 141.384 49.092 141.384 48.6423V47.3896L143.254 43.5753H141.789Z" fill="#2CAAE2"/>
<path d="M144.104 45.5989C144.104 46.956 145.035 47.7108 146.338 47.7108C147.455 47.7108 148.475 47.1085 148.532 45.9522H147.237C147.188 46.3135 146.856 46.5866 146.338 46.5866C145.723 46.5866 145.399 46.2252 145.399 45.5989C145.399 44.9806 145.723 44.6192 146.338 44.6192C146.856 44.6192 147.188 44.8922 147.237 45.2536H148.532C148.475 44.0972 147.455 43.495 146.338 43.495C145.035 43.495 144.104 44.2498 144.104 45.5989Z" fill="#2CAAE2"/>
<path d="M154.074 47.6305L152.763 45.3419L153.256 44.6995H153.912V43.5753H153.184C152.835 43.5753 152.528 43.6395 152.326 43.9045L151.508 44.9966H151.16V43.5753H149.865V47.6305H151.16V46.1208H151.573C151.654 46.1208 151.727 46.1208 151.799 46.1128L152.674 47.6305H154.074Z" fill="#2CAAE2"/>
<path d="M155.08 45.5989C155.08 47.0202 156.1 47.7108 157.387 47.7108C158.666 47.7108 159.686 47.0202 159.686 45.5989C159.686 44.1856 158.666 43.495 157.387 43.495C156.1 43.495 155.08 44.1856 155.08 45.5989ZM156.375 45.5989C156.375 44.9243 156.772 44.6192 157.387 44.6192C157.994 44.6192 158.391 44.9243 158.391 45.5989C158.391 46.2814 157.994 46.5866 157.387 46.5866C156.772 46.5866 156.375 46.2814 156.375 45.5989Z" fill="#2CAAE2"/>
<path d="M161.023 47.6305H163.224C164.261 47.6305 164.957 47.3575 164.957 46.5785C164.957 45.8157 164.293 45.7033 163.759 45.6952V45.374C164.082 45.3499 164.657 45.2536 164.657 44.5309C164.657 43.768 163.961 43.5753 162.925 43.5753H161.023V47.6305ZM162.237 45.1171V44.4586H162.925C163.313 44.4586 163.443 44.5068 163.443 44.7878C163.443 45.093 163.313 45.1171 162.925 45.1171H162.237ZM162.237 46.7472V46.0004H163.224C163.605 46.0004 163.743 46.0646 163.743 46.3698C163.743 46.6508 163.605 46.7472 163.224 46.7472H162.237Z" fill="#2CAAE2"/>
</svg>
