<svg width="54" height="54" viewBox="0 0 54 54" fill="#2CAAE2" xmlns="http://www.w3.org/2000/svg">
    <path fill-rule="evenodd" clip-rule="evenodd" d="M9.48277 19.8488C7.99731 19.8488 6.79311 21.053 6.79311 22.5384V48.5172C6.79311 50.0027 7.99731 51.2069 9.48276 51.2069H45.3058C46.7912 51.2069 47.9954 50.0027 47.9954 48.5172V22.5384C47.9954 21.053 46.7912 19.8488 45.3058 19.8488H33.5546V18.0557H45.3058C47.7816 18.0557 49.7886 20.0627 49.7886 22.5384V48.5172C49.7886 50.993 47.7816 53 45.3058 53H9.48276C7.007 53 5 50.993 5 48.5172V22.5384C5 20.0627 7.007 18.0557 9.48277 18.0557H21.4125V19.8488H9.48277Z" />
    <path fill-rule="evenodd" clip-rule="evenodd" d="M31.2571 18.2532H23.6945C22.9853 18.2532 22.4103 18.8282 22.4103 19.5374C22.4103 20.2467 22.9853 20.8216 23.6945 20.8216H31.2571C31.9663 20.8216 32.5413 20.2467 32.5413 19.5374C32.5413 18.8282 31.9663 18.2532 31.2571 18.2532ZM23.6945 16.4601C21.995 16.4601 20.6172 17.8379 20.6172 19.5374C20.6172 21.237 21.995 22.6147 23.6945 22.6147H31.2571C32.9566 22.6147 34.3344 21.237 34.3344 19.5374C34.3344 17.8379 32.9566 16.4601 31.2571 16.4601H23.6945Z"/>
    <path fill-rule="evenodd" clip-rule="evenodd" d="M17.8491 38.5783C20.0773 38.5783 21.8836 36.772 21.8836 34.5438C21.8836 32.3156 20.0773 30.5093 17.8491 30.5093C15.6209 30.5093 13.8146 32.3156 13.8146 34.5438C13.8146 36.772 15.6209 38.5783 17.8491 38.5783ZM17.8491 40.3714C21.0676 40.3714 23.6767 37.7623 23.6767 34.5438C23.6767 31.3253 21.0676 28.7162 17.8491 28.7162C14.6306 28.7162 12.0215 31.3253 12.0215 34.5438C12.0215 37.7623 14.6306 40.3714 17.8491 40.3714Z" />
    <path fill-rule="evenodd" clip-rule="evenodd" d="M16.4086 41.3189C13.6429 41.5774 11.3904 42.7705 10.3378 43.9613C10.0099 44.3322 9.44328 44.3671 9.0723 44.0392C8.70132 43.7112 8.66643 43.1446 8.99437 42.7737C10.4112 41.1709 13.1252 39.8249 16.2417 39.5336C19.3973 39.2386 23.0411 40.0153 26.3094 42.767C26.6882 43.0859 26.7367 43.6515 26.4178 44.0303C26.0989 44.4091 25.5333 44.4576 25.1545 44.1387C22.2898 41.7268 19.1353 41.064 16.4086 41.3189Z"/>
    <path fill-rule="evenodd" clip-rule="evenodd" d="M43.6495 28.9238H31.2462L31.2462 32.3613L43.6495 32.3613L43.6495 28.9238ZM31.2462 27.1307C30.2559 27.1307 29.4531 27.9335 29.4531 28.9238V32.3613C29.4531 33.3516 30.2559 34.1544 31.2462 34.1544H43.6495C44.6398 34.1544 45.4426 33.3516 45.4426 32.3613V28.9238C45.4426 27.9335 44.6398 27.1307 43.6495 27.1307H31.2462Z" />
    <path fill-rule="evenodd" clip-rule="evenodd" d="M44.4653 45.4075C45.0051 45.4075 45.4426 44.9699 45.4426 44.4302C45.4426 43.8904 45.0051 43.4529 44.4653 43.4529H30.4304C30.4304 43.4529 30.4304 43.4529 30.4304 43.4529C29.8907 43.4529 29.4531 43.8904 29.4531 44.4302C29.4531 44.9699 29.8907 45.4075 30.4304 45.4075H44.4653Z" />
    <path fill-rule="evenodd" clip-rule="evenodd" d="M44.4653 40.7133C45.0051 40.7133 45.4426 40.2757 45.4426 39.736C45.4426 39.1962 45.0051 38.7587 44.4653 38.7587H30.4304C30.4304 38.7587 30.4304 38.7587 30.4304 38.7587C29.8907 38.7587 29.4531 39.1962 29.4531 39.736C29.4531 40.2757 29.8907 40.7133 30.4304 40.7133H44.4653Z" />
    <path fill-rule="evenodd" clip-rule="evenodd" d="M25.283 15.3015C25.0004 15.7396 24.9591 16.3042 24.9591 16.7346L23.166 16.7345C23.166 16.265 23.1909 15.2369 23.7761 14.3296C24.4149 13.3393 25.5802 12.6909 27.4263 12.7424L27.3763 14.5348C26.016 14.4968 25.5119 14.9465 25.283 15.3015Z" />
    <path fill-rule="evenodd" clip-rule="evenodd" d="M29.2344 15.2334C29.502 15.6217 29.5487 16.1416 29.5487 16.6291L31.3418 16.629C31.3418 16.1145 31.3165 15.0945 30.7107 14.2157C30.0532 13.2619 28.8803 12.6919 27.07 12.7424L27.12 14.5348C28.5161 14.4958 29.0184 14.9201 29.2344 15.2334Z"/>
    <path fill-rule="evenodd" clip-rule="evenodd" d="M24.0004 10.3772C24.6254 11.6611 25.3807 12.804 26.0123 13.5548L24.64 14.709C23.9038 13.8337 23.0706 12.564 22.3882 11.162C21.7084 9.76544 21.1478 8.17571 21.0131 6.66721C20.8783 5.15829 21.1638 3.59677 22.3517 2.47366C23.5233 1.36592 25.3768 0.87392 27.9386 1.02743C30.3617 1.17262 32.0684 1.85469 33.0821 3.04605C34.1066 4.25014 34.257 5.77599 34.0104 7.22228C33.5256 10.0654 31.4313 13.136 29.8967 14.7497L28.5973 13.5141C30.011 12.0276 31.8423 9.26949 32.2428 6.92089C32.4388 5.77133 32.2717 4.8606 31.7164 4.20806C31.1504 3.54279 30.0149 2.94817 27.8314 2.81733C25.495 2.67733 24.2376 3.15824 23.5836 3.7766C22.9458 4.37958 22.691 5.29735 22.7991 6.50766C22.9072 7.7184 23.3728 9.08784 24.0004 10.3772Z" />
</svg>
