<svg width="54" height="54" viewBox="0 0 54 54" fill="none" xmlns="http://www.w3.org/2000/svg">
<g clip-path="url(#clip0)">
<path fill-rule="evenodd" clip-rule="evenodd" d="M45.0603 2H9C8.44772 2 8 2.44772 8 3V51C8 51.5523 8.44772 52 9 52H45.0603C45.6126 52 46.0603 51.5523 46.0603 51V3C46.0603 2.44771 45.6126 2 45.0603 2ZM9 0C7.34315 0 6 1.34315 6 3V51C6 52.6569 7.34314 54 9 54H45.0603C46.7172 54 48.0603 52.6569 48.0603 51V3C48.0603 1.34315 46.7172 0 45.0603 0H9Z" fill="#2CAAE2"/>
<path fill-rule="evenodd" clip-rule="evenodd" d="M21.1322 12.095C22.3802 12.095 22.9226 11.263 22.9226 10.7784C22.9226 10.2938 22.3802 9.46179 21.1322 9.46179C19.8842 9.46179 19.3418 10.2938 19.3418 10.7784C19.3418 11.263 19.8842 12.095 21.1322 12.095ZM21.1322 14.095C23.2256 14.095 24.9226 12.6101 24.9226 10.7784C24.9226 8.94668 23.2256 7.46179 21.1322 7.46179C19.0388 7.46179 17.3418 8.94668 17.3418 10.7784C17.3418 12.6101 19.0388 14.095 21.1322 14.095Z" fill="#2CAAE2"/>
<path fill-rule="evenodd" clip-rule="evenodd" d="M20.1665 12.6219C20.4195 13.1129 20.2266 13.7159 19.7357 13.9689C19.4579 14.1121 19.2014 14.2983 18.9763 14.5234C18.4043 15.0953 18.083 15.8711 18.083 16.68C18.083 17.2322 17.6353 17.68 17.083 17.68C16.5307 17.68 16.083 17.2322 16.083 16.68C16.083 15.3406 16.6151 14.0562 17.5621 13.1091C17.9347 12.7366 18.3596 12.4281 18.8194 12.1911C19.3104 11.9381 19.9134 12.131 20.1665 12.6219ZM22.0994 12.6219C22.3524 12.131 22.9555 11.9381 23.4464 12.1911C23.9063 12.4281 24.3312 12.7366 24.7037 13.1091L23.9966 13.8162L24.7037 13.1091C25.6508 14.0562 26.1828 15.3406 26.1828 16.68C26.1828 17.2322 25.7351 17.68 25.1828 17.68C24.6305 17.68 24.1828 17.2322 24.1828 16.68C24.1828 15.8711 23.8615 15.0953 23.2895 14.5234C23.0645 14.2983 22.8079 14.1121 22.5302 13.9689C22.0393 13.7159 21.8464 13.1129 22.0994 12.6219Z" fill="#2CAAE2"/>
<path fill-rule="evenodd" clip-rule="evenodd" d="M21.1322 27.9611C22.3802 27.9611 22.9226 27.1291 22.9226 26.6445C22.9226 26.1598 22.3802 25.3279 21.1322 25.3279C19.8842 25.3279 19.3418 26.1598 19.3418 26.6445C19.3418 27.1291 19.8842 27.9611 21.1322 27.9611ZM21.1322 29.9611C23.2256 29.9611 24.9226 28.4762 24.9226 26.6445C24.9226 24.8128 23.2256 23.3279 21.1322 23.3279C19.0388 23.3279 17.3418 24.8128 17.3418 26.6445C17.3418 28.4762 19.0388 29.9611 21.1322 29.9611Z" fill="#2CAAE2"/>
<path fill-rule="evenodd" clip-rule="evenodd" d="M20.1665 28.488C20.4195 28.979 20.2266 29.582 19.7357 29.835C19.4579 29.9782 19.2014 30.1644 18.9763 30.3894C18.4043 30.9614 18.083 31.7372 18.083 32.5461C18.083 33.0983 17.6353 33.5461 17.083 33.5461C16.5307 33.5461 16.083 33.0983 16.083 32.5461C16.083 31.2067 16.6151 29.9223 17.5621 28.9752C17.9347 28.6026 18.3596 28.2942 18.8194 28.0572C19.3104 27.8042 19.9134 27.9971 20.1665 28.488ZM22.0994 28.488C22.3524 27.9971 22.9555 27.8042 23.4464 28.0572C23.9063 28.2942 24.3312 28.6026 24.7037 28.9752L23.9966 29.6823L24.7037 28.9752C25.6508 29.9223 26.1828 31.2067 26.1828 32.5461C26.1828 33.0983 25.7351 33.5461 25.1828 33.5461C24.6305 33.5461 24.1828 33.0983 24.1828 32.5461C24.1828 31.7372 23.8615 30.9614 23.2895 30.3894C23.0645 30.1644 22.8079 29.9782 22.5302 29.835C22.0393 29.582 21.8464 28.979 22.0994 28.488Z" fill="#2CAAE2"/>
<path fill-rule="evenodd" clip-rule="evenodd" d="M21.1322 42.6648C22.3802 42.6648 22.9226 41.8328 22.9226 41.3482C22.9226 40.8636 22.3802 40.0316 21.1322 40.0316C19.8842 40.0316 19.3418 40.8636 19.3418 41.3482C19.3418 41.8328 19.8842 42.6648 21.1322 42.6648ZM21.1322 44.6648C23.2256 44.6648 24.9226 43.1799 24.9226 41.3482C24.9226 39.5165 23.2256 38.0316 21.1322 38.0316C19.0388 38.0316 17.3418 39.5165 17.3418 41.3482C17.3418 43.1799 19.0388 44.6648 21.1322 44.6648Z" fill="#2CAAE2"/>
<path fill-rule="evenodd" clip-rule="evenodd" d="M20.1665 43.1918C20.4195 43.6827 20.2266 44.2858 19.7357 44.5388C19.4579 44.6819 19.2014 44.8681 18.9763 45.0932C18.4043 45.6651 18.083 46.4409 18.083 47.2498C18.083 47.8021 17.6353 48.2498 17.083 48.2498C16.5307 48.2498 16.083 47.8021 16.083 47.2498C16.083 45.9105 16.6151 44.626 17.5621 43.679C17.9347 43.3064 18.3596 42.998 18.8194 42.761C19.3104 42.508 19.9134 42.7008 20.1665 43.1918ZM22.0994 43.1918C22.3524 42.7008 22.9555 42.508 23.4464 42.761C23.9063 42.998 24.3312 43.3064 24.7037 43.679L23.9966 44.3861L24.7037 43.679C25.6508 44.626 26.1828 45.9105 26.1828 47.2498C26.1828 47.8021 25.7351 48.2498 25.1828 48.2498C24.6305 48.2498 24.1828 47.8021 24.1828 47.2498C24.1828 46.4409 23.8615 45.6651 23.2895 45.0932C23.0645 44.8681 22.8079 44.6819 22.5302 44.5388C22.0393 44.2858 21.8464 43.6827 22.0994 43.1918Z" fill="#2CAAE2"/>
<path fill-rule="evenodd" clip-rule="evenodd" d="M37.6234 8.98943C38.0139 9.37995 38.0139 10.0131 37.6234 10.4036L32.8746 15.1524C32.4841 15.5429 31.851 15.5429 31.4604 15.1524L28.4755 12.1675C28.085 11.7769 28.085 11.1438 28.4755 10.7532C28.866 10.3627 29.4992 10.3627 29.8897 10.7532L32.1675 13.0311L36.2092 8.98943C36.5997 8.5989 37.2329 8.5989 37.6234 8.98943Z" fill="#2CAAE2"/>
<path fill-rule="evenodd" clip-rule="evenodd" d="M37.6234 24.8555C38.0139 25.246 38.0139 25.8792 37.6234 26.2697L32.8746 31.0185C32.4841 31.409 31.851 31.409 31.4604 31.0185L28.4755 28.0335C28.085 27.643 28.085 27.0099 28.4755 26.6193C28.866 26.2288 29.4992 26.2288 29.8897 26.6193L32.1675 28.8972L36.2092 24.8555C36.5997 24.465 37.2329 24.465 37.6234 24.8555Z" fill="#2CAAE2"/>
<path fill-rule="evenodd" clip-rule="evenodd" d="M37.6234 39.5593C38.0139 39.9498 38.0139 40.5829 37.6234 40.9735L32.8746 45.7222C32.4841 46.1127 31.851 46.1127 31.4604 45.7222L28.4755 42.7373C28.085 42.3468 28.085 41.7136 28.4755 41.3231C28.866 40.9325 29.4992 40.9325 29.8897 41.3231L32.1675 43.6009L36.2092 39.5593C36.5997 39.1687 37.2329 39.1687 37.6234 39.5593Z" fill="#2CAAE2"/>
</g>
<defs>
<clipPath id="clip0">
<rect width="54" height="54" fill="white"/>
</clipPath>
</defs>
</svg>
