<svg width="54" height="54" viewBox="0 0 54 54" fill="none" xmlns="http://www.w3.org/2000/svg">
<g clip-path="url(#clip0)">
<g clip-path="url(#clip1)">
<path fill-rule="evenodd" clip-rule="evenodd" d="M1.03516 3C1.03516 1.34315 2.3783 0 4.03516 0H36.0613C37.7182 0 39.0613 1.34314 39.0613 3V20.6186H37.0613V3C37.0613 2.44772 36.6136 2 36.0613 2H4.03516C3.48287 2 3.03516 2.44772 3.03516 3V43.5229C3.03516 44.0752 3.48287 44.5229 4.03516 44.5229H23.0243V46.5229H4.03516C2.37831 46.5229 1.03516 45.1797 1.03516 43.5229V3Z" fill="#2CAAE2"/>
<path fill-rule="evenodd" clip-rule="evenodd" d="M8.32227 8.83667C8.32227 8.28439 8.76998 7.83667 9.32227 7.83667H30.9431C31.4953 7.83667 31.9431 8.28439 31.9431 8.83667C31.9431 9.38895 31.4953 9.83667 30.9431 9.83667H9.32227C8.76998 9.83667 8.32227 9.38895 8.32227 8.83667Z" fill="#2CAAE2"/>
<path fill-rule="evenodd" clip-rule="evenodd" d="M8.32227 26.8579C8.32227 26.3056 8.76998 25.8579 9.32227 25.8579H16.2409C16.7932 25.8579 17.2409 26.3056 17.2409 26.8579C17.2409 27.4102 16.7932 27.8579 16.2409 27.8579H9.32227C8.76998 27.8579 8.32227 27.4102 8.32227 26.8579Z" fill="#2CAAE2"/>
<path fill-rule="evenodd" clip-rule="evenodd" d="M8.32227 18.3529C8.32227 17.8006 8.76998 17.3529 9.32227 17.3529H30.9431C31.4953 17.3529 31.9431 17.8006 31.9431 18.3529C31.9431 18.9052 31.4953 19.3529 30.9431 19.3529H9.32227C8.76998 19.3529 8.32227 18.9052 8.32227 18.3529Z" fill="#2CAAE2"/>
<path fill-rule="evenodd" clip-rule="evenodd" d="M8.32227 36.3744C8.32227 35.8221 8.76998 35.3744 9.32227 35.3744H13.4498C14.0021 35.3744 14.4498 35.8221 14.4498 36.3744C14.4498 36.9267 14.0021 37.3744 13.4498 37.3744H9.32227C8.76998 37.3744 8.32227 36.9267 8.32227 36.3744Z" fill="#2CAAE2"/>
<path fill-rule="evenodd" clip-rule="evenodd" d="M44.6081 29.3894C45.0552 29.7137 45.1547 30.339 44.8305 30.7861L35.4197 43.7608C35.2607 43.98 35.0196 44.1254 34.7515 44.1637C34.4834 44.2019 34.2113 44.1298 33.9973 43.9638L26.6693 38.2794C26.233 37.9409 26.1536 37.3127 26.4921 36.8763C26.8306 36.44 27.4588 36.3606 27.8952 36.6991L34.4071 41.7505L43.2115 29.6118C43.5357 29.1647 44.161 29.0652 44.6081 29.3894Z" fill="#2CAAE2"/>
<path fill-rule="evenodd" clip-rule="evenodd" d="M35.6516 51C43.5569 51 49.9653 44.5915 49.9653 36.6863C49.9653 28.781 43.5569 22.3726 35.6516 22.3726C27.7464 22.3726 21.3379 28.781 21.3379 36.6863C21.3379 44.5915 27.7464 51 35.6516 51ZM35.6516 53C44.6614 53 51.9653 45.6961 51.9653 36.6863C51.9653 27.6765 44.6614 20.3726 35.6516 20.3726C26.6418 20.3726 19.3379 27.6765 19.3379 36.6863C19.3379 45.6961 26.6418 53 35.6516 53Z" fill="#2CAAE2"/>
</g>
</g>
<defs>
<clipPath id="clip0">
<rect width="54" height="54" fill="white"/>
</clipPath>
<clipPath id="clip1">
<rect width="51.8497" height="54" fill="white" transform="translate(1.0752)"/>
</clipPath>
</defs>
</svg>
