<svg width="54" height="54" viewBox="0 0 54 54" fill="none" xmlns="http://www.w3.org/2000/svg">
<g clip-path="url(#clip0)">
<g clip-path="url(#clip1)">
<path fill-rule="evenodd" clip-rule="evenodd" d="M25.2274 3.75039C24.7279 4.54642 24.4898 5.61848 24.4308 6.5938C24.3668 7.652 23.5337 8.5444 22.4568 8.6469C18.9646 8.97929 16.6287 11.1126 15.0975 13.8132C13.5615 16.5223 12.8999 19.7084 12.7724 21.867V36.5933C12.7724 37.1424 12.5466 37.6675 12.1479 38.0452L7.62012 42.3347V43.6162H47.381V42.3347L42.8531 38.0452C42.4545 37.6675 42.2286 37.1424 42.2286 36.5933V21.867C42.1012 19.7084 41.4395 16.5223 39.9036 13.8132C38.3724 11.1126 36.0365 8.97929 32.5443 8.6469C31.4674 8.5444 30.6343 7.652 30.5703 6.5938C30.5113 5.61848 30.2732 4.54642 29.7737 3.75039C29.3071 3.00694 28.6216 2.5 27.5005 2.5C26.3795 2.5 25.6939 3.00694 25.2274 3.75039ZM23.5333 2.68734C24.3123 1.44598 25.5963 0.5 27.5005 0.5C29.4047 0.5 30.6888 1.44598 31.4678 2.68734C32.2137 3.87612 32.497 5.32078 32.5666 6.47305C32.5691 6.51324 32.5872 6.5591 32.6244 6.59802C32.6611 6.63651 32.7014 6.65282 32.7338 6.6559C37.0736 7.06897 39.9027 9.75667 41.6434 12.8268C43.3726 15.8768 44.0907 19.3953 44.227 21.7809C44.2281 21.7999 44.2286 21.8189 44.2286 21.838V36.5933L48.7564 40.8828C49.1551 41.2605 49.381 41.7855 49.381 42.3347V43.6162C49.381 44.7208 48.4855 45.6162 47.381 45.6162H7.62012C6.51555 45.6162 5.62012 44.7208 5.62012 43.6162V42.3347C5.62012 41.7855 5.84594 41.2605 6.24463 40.8828L10.7724 36.5933V21.838C10.7724 21.8189 10.773 21.7999 10.7741 21.7809C10.9104 19.3953 11.6285 15.8768 13.3577 12.8268C15.0984 9.75667 17.9275 7.06897 22.2673 6.6559C22.2997 6.65282 22.34 6.63651 22.3767 6.59802C22.4138 6.5591 22.432 6.51324 22.4344 6.47305C22.5041 5.32078 22.7873 3.87612 23.5333 2.68734Z" fill="#2CAAE2"/>
<path fill-rule="evenodd" clip-rule="evenodd" d="M30.1975 50.3827C30.4094 50.1708 30.5938 49.9365 30.7484 49.6854L24.2519 49.6854C24.4065 49.9365 24.5909 50.1708 24.8028 50.3827C25.5182 51.0981 26.4884 51.5 27.5001 51.5C28.5118 51.5 29.4821 51.0981 30.1975 50.3827ZM22.0403 49.6854C21.8078 49.0507 21.6855 48.3744 21.6855 47.6854L33.3147 47.6854C33.3147 48.3744 33.1925 49.0507 32.9599 49.6854C32.672 50.4715 32.215 51.1937 31.6117 51.797C30.5212 52.8874 29.0423 53.5 27.5001 53.5C25.958 53.5 24.479 52.8874 23.3886 51.797C22.7853 51.1937 22.3283 50.4715 22.0403 49.6854Z" fill="#2CAAE2"/>
</g>
</g>
<defs>
<clipPath id="clip0">
<rect width="54" height="54" fill="white"/>
</clipPath>
<clipPath id="clip1">
<rect width="54" height="54" fill="white" transform="translate(0.5 0.5)"/>
</clipPath>
</defs>
</svg>
