<svg width="54" height="54" viewBox="0 0 54 54" fill="none" xmlns="http://www.w3.org/2000/svg">
<path fill-rule="evenodd" clip-rule="evenodd" d="M20.548 12.7305C20.8236 11.9194 21.5851 11.3738 22.4418 11.3738H23.1999C24.0032 11.3738 24.7286 11.8544 25.0417 12.5941L25.6448 14.0188L26.0817 14.191L27.5597 13.5213C28.3319 13.1714 29.2408 13.3463 29.8279 13.9579L30.4224 14.5772C31.0056 15.1847 31.1458 16.0924 30.7731 16.8475L30.1057 18.1994L30.1932 18.4761L31.8284 19.1541C32.5754 19.4639 33.0624 20.193 33.0624 21.0016V21.7222C33.0624 22.5678 32.5306 23.322 31.734 23.606L30.2821 24.1236L30.1415 24.4225L30.7776 25.7067C31.1455 26.4494 31.0172 27.342 30.455 27.951L29.826 28.6324C29.2561 29.2498 28.3613 29.4452 27.586 29.1216L26.0944 28.499L25.9019 28.5733L25.2594 30.068C24.9438 30.8023 24.2213 31.2782 23.422 31.2782H22.5889C21.803 31.2782 21.09 30.818 20.7663 30.1019L20.1686 28.7792L19.5388 28.5135L18.2956 29.0819C17.5209 29.436 16.607 29.2606 16.0184 28.6449L15.4052 28.0035C14.788 27.3579 14.6737 26.3815 15.125 25.6108L15.7143 24.6044L15.4854 24.1349L13.9176 23.6044C13.1053 23.3296 12.5586 22.5675 12.5586 21.7099V21.0513C12.5586 20.1935 13.1055 19.4313 13.9181 19.1566L15.4 18.6556L15.5457 18.1927L14.9852 17.0183C14.6437 16.3027 14.7572 15.4528 15.2746 14.8519L15.8801 14.1487C16.4331 13.5065 17.3308 13.2826 18.1206 13.5897L19.694 14.2016L20.1041 14.0376L20.548 12.7305ZM23.1999 13.3738L22.4418 13.3738L21.9978 14.6809C21.8099 15.2341 21.3894 15.6776 20.8468 15.8946L20.4368 16.0586C19.9662 16.2469 19.4416 16.2494 18.9691 16.0656L17.3957 15.4537L16.7902 16.1569L17.3507 17.3313C17.5686 17.788 17.6054 18.3104 17.4534 18.7931L17.3077 19.2561C17.1161 19.865 16.6452 20.3459 16.0405 20.5503L14.5586 21.0513V21.7099L16.1264 22.2404C16.6325 22.4116 17.0491 22.7782 17.2832 23.2585L17.5121 23.728C17.8052 24.3294 17.7783 25.0376 17.4402 25.615L16.8508 26.6214L17.4641 27.2629L18.7073 26.6946C19.2166 26.4617 19.8003 26.4531 20.3162 26.6708L20.946 26.9365C21.4103 27.1324 21.7836 27.4963 21.9911 27.9556L22.5889 29.2782L23.422 29.2782L24.0644 27.7836C24.2768 27.2894 24.6793 26.9016 25.1811 26.7077L25.3736 26.6334C25.8546 26.4475 26.3888 26.4547 26.8647 26.6533L28.3564 27.2759L28.9854 26.5944L28.3493 25.3102C28.0785 24.7635 28.0721 24.123 28.3319 23.5709L28.4725 23.2721C28.6993 22.7902 29.1089 22.4186 29.6105 22.2398L31.0624 21.7222L31.0624 21.0016L29.4272 20.3236C28.8817 20.0974 28.4641 19.6418 28.2861 19.0788L28.1987 18.8021C28.0432 18.31 28.0839 17.7769 28.3123 17.3142L28.9797 15.9622L28.3852 15.343L26.9071 16.0127C26.4141 16.2361 25.8517 16.2502 25.3481 16.0516L24.9112 15.8794C24.4117 15.6825 24.0123 15.2929 23.803 14.7984L23.1999 13.3738Z" fill="#2CAAE2"/>
<path fill-rule="evenodd" clip-rule="evenodd" d="M23.0188 22.3642C23.5928 22.3642 24.0581 21.8989 24.0581 21.3249C24.0581 20.751 23.5928 20.2856 23.0188 20.2856C22.4448 20.2856 21.9795 20.751 21.9795 21.3249C21.9795 21.8989 22.4448 22.3642 23.0188 22.3642ZM23.0188 24.3642C24.6974 24.3642 26.0581 23.0035 26.0581 21.3249C26.0581 19.6464 24.6974 18.2856 23.0188 18.2856C21.3402 18.2856 19.9795 19.6464 19.9795 21.3249C19.9795 23.0035 21.3402 24.3642 23.0188 24.3642Z" fill="#2CAAE2"/>
<path fill-rule="evenodd" clip-rule="evenodd" d="M7.14977 28.7821C7.63063 29.0537 7.80024 29.6637 7.5286 30.1446L3.15054 37.8948L13.3228 34.4923C13.8466 34.3171 14.4132 34.5997 14.5884 35.1235C14.7636 35.6472 14.481 36.2138 13.9572 36.389L1.31722 40.6169C0.92472 40.7482 0.491907 40.6241 0.228562 40.3049C-0.0347826 39.9856 -0.0742354 39.5371 0.129326 39.1767L5.78724 29.1609C6.05888 28.6801 6.6689 28.5104 7.14977 28.7821Z" fill="#2CAAE2"/>
<path fill-rule="evenodd" clip-rule="evenodd" d="M23.583 5C12.7658 5 4.34375 12.1792 4.34375 20.6467C4.34375 23.4586 5.58965 26.462 7.4922 29.0191C7.82188 29.4621 7.72994 30.0886 7.28685 30.4183C6.84376 30.748 6.2173 30.656 5.88762 30.2129C3.81631 27.4291 2.34375 24.0158 2.34375 20.6467C2.34375 10.7268 12.0445 3 23.583 3C35.1214 3 44.8222 10.7268 44.8222 20.6467C44.8222 25.6127 42.2104 30.0402 38.2933 33.1964C34.3761 36.3526 29.0947 38.2934 23.583 38.2934C21.6163 38.2934 20.2284 38.169 18.8345 37.9316C18.8262 37.9302 18.818 37.9287 18.8098 37.9271C18.0998 37.7878 16.9849 37.5344 15.9289 37.2225C15.4012 37.0666 14.8731 36.8917 14.4111 36.7039C13.971 36.5249 13.5075 36.3016 13.1703 36.0246C12.7436 35.6741 12.6818 35.0439 13.0323 34.6172C13.3829 34.1904 14.013 34.1286 14.4398 34.4792C14.5338 34.5564 14.7639 34.6883 15.1646 34.8512C15.5433 35.0052 16.0032 35.159 16.4955 35.3044C17.4731 35.5932 18.5188 35.8314 19.1827 35.9621C20.4481 36.177 21.7203 36.2934 23.583 36.2934C28.64 36.2934 33.4782 34.5077 37.0385 31.639C40.5988 28.7703 42.8222 24.8744 42.8222 20.6467C42.8222 12.1792 34.4002 5 23.583 5Z" fill="#2CAAE2"/>
<path fill-rule="evenodd" clip-rule="evenodd" d="M49.037 44.3888C48.5491 44.6475 48.3634 45.2529 48.6222 45.7408L49.9895 48.3185L44.5814 46.5501C44.0564 46.3785 43.4917 46.6649 43.3201 47.1898C43.1485 47.7148 43.4349 48.2795 43.9598 48.4511L51.7234 50.9897C52.111 51.1164 52.5367 50.9951 52.7993 50.6831C53.0619 50.371 53.1087 49.9308 52.9176 49.5706L50.389 44.8036C50.1302 44.3157 49.5249 44.13 49.037 44.3888Z" fill="#2CAAE2"/>
<path fill-rule="evenodd" clip-rule="evenodd" d="M41.5712 30.0469C47.5225 30.0469 52 33.9816 52 38.447C52 40.5699 50.626 42.9552 48.8281 44.5176C48.4113 44.8799 48.367 45.5115 48.7293 45.9284C49.0916 46.3453 49.7232 46.3895 50.14 46.0272C52.2184 44.221 54 41.3284 54 38.447C54 32.5293 48.2438 28.0469 41.5712 28.0469C41.0189 28.0469 40.5712 28.4946 40.5712 29.0469C40.5712 29.5992 41.0189 30.0469 41.5712 30.0469ZM30.712 35.3456C30.1805 35.1953 29.6278 35.5042 29.4775 36.0356C29.2585 36.8096 29.1425 37.6173 29.1425 38.447C29.1425 41.4119 30.7019 44.0278 32.9914 45.8726C35.2811 47.7174 38.3599 48.8471 41.5712 48.8471C42.5462 48.8471 43.3611 48.695 44 48.5758C44.143 48.5492 44.2771 48.5241 44.4023 48.5028C44.9467 48.4101 45.3129 47.8936 45.2202 47.3491C45.1275 46.8047 44.611 46.4385 44.0665 46.5312C43.8985 46.5598 43.7354 46.59 43.5739 46.6198C42.9473 46.7357 42.3445 46.8471 41.5712 46.8471C38.8146 46.8471 36.179 45.8725 34.2463 44.3152C32.3134 42.7578 31.1425 40.6736 31.1425 38.447C31.1425 37.805 31.2321 37.1804 31.4019 36.5801C31.5523 36.0487 31.2434 35.496 30.712 35.3456Z" fill="#2CAAE2"/>
</svg>
