<svg width="54" height="52" viewBox="0 0 54 52" fill="none" xmlns="http://www.w3.org/2000/svg">
<path fill-rule="evenodd" clip-rule="evenodd" d="M25.4024 1.99997C24.9741 1.99997 24.5933 2.27277 24.4556 2.67835L22.9157 7.2117C22.6338 8.04163 22.0031 8.70676 21.1893 9.03228L19.4152 9.74192C18.7092 10.0243 17.9223 10.0281 17.2137 9.7525L12.0061 7.72727C11.6112 7.57369 11.1623 7.68567 10.8858 8.00676L8.49185 10.7869C8.23313 11.0874 8.17636 11.5123 8.34713 11.8702L10.2694 15.8981C10.5964 16.5832 10.6515 17.3667 10.4236 18.0908L9.80217 20.0653C9.51469 20.9787 8.80844 21.7 7.9013 22.0066L2.84284 23.7166C2.43655 23.854 2.16309 24.2351 2.16309 24.664V27.6407C2.16309 28.0695 2.43644 28.4506 2.8426 28.588L8.07289 30.3576C8.83207 30.6144 9.45692 31.1644 9.8081 31.8848L10.7782 33.8748C11.2179 34.777 11.1775 35.8392 10.6703 36.7053L8.50797 40.3981C8.28233 40.7835 8.33951 41.2717 8.64807 41.5945L11.1635 44.2257C11.4578 44.5335 11.9147 44.6212 12.3021 44.4441L16.6035 42.4778C17.3675 42.1285 18.2429 42.1156 19.0169 42.4421L21.3826 43.4402C22.0791 43.734 22.639 44.2799 22.9503 44.9688L24.9582 49.4118C25.12 49.7699 25.4765 50 25.8695 50H29.2296C29.6293 50 29.9905 49.7621 30.1484 49.3949L32.2802 44.435C32.5988 43.6938 33.2026 43.1121 33.9552 42.8213L35.1008 42.3787C35.8223 42.0999 36.6237 42.1106 37.3375 42.4086L42.3085 44.4835C42.6962 44.6453 43.1436 44.5476 43.4285 44.2389L45.9311 41.5277C46.2122 41.2232 46.2764 40.7769 46.0924 40.4056L43.9041 35.9877C43.4979 35.1676 43.4883 34.2068 43.878 33.3787L44.5741 31.8995C44.9142 31.1766 45.5286 30.6193 46.2811 30.3511L51.1727 28.6071C51.5709 28.4651 51.8369 28.088 51.8369 27.6652V24.5647C51.8369 24.1604 51.5934 23.7959 51.2199 23.641L45.8233 21.4034C45.0051 21.0641 44.3787 20.3807 44.1118 19.5362L43.6604 18.1076C43.4271 17.3695 43.4882 16.5698 43.8308 15.8757L46.0816 11.316C46.268 10.9384 46.1979 10.4846 45.9063 10.1808L43.4727 7.6459C43.1792 7.34011 42.7247 7.25263 42.3386 7.42758L37.3947 9.6678C36.6553 10.0029 35.8115 10.0239 35.0562 9.72618L33.2145 9.00008C32.4652 8.70466 31.8661 8.12034 31.5521 7.37861L29.5336 2.61015C29.377 2.24027 29.0143 1.99997 28.6127 1.99997H25.4024ZM22.5618 2.03512C22.9751 0.818376 24.1174 -3.05176e-05 25.4024 -3.05176e-05H28.6127C29.8176 -3.05176e-05 30.9057 0.720887 31.3754 1.83051L33.3939 6.59896C33.4986 6.84621 33.6982 7.04098 33.948 7.13945L35.7898 7.86555C36.0415 7.96481 36.3228 7.95779 36.5693 7.84609L41.5131 5.60588C42.6715 5.08101 44.0348 5.34347 44.9155 6.26084L47.349 8.79577C48.2238 9.707 48.4341 11.0686 47.875 12.2013L45.6242 16.761C45.51 16.9924 45.4896 17.2589 45.5674 17.505L46.0188 18.9335C46.1078 19.215 46.3166 19.4428 46.5893 19.5559L51.9859 21.7935C53.1064 22.2581 53.8369 23.3517 53.8369 24.5647V27.6652C53.8369 28.9336 53.0391 30.065 51.8443 30.491L46.9527 32.2349C46.7019 32.3243 46.4971 32.5101 46.3837 32.751L45.6876 34.2303C45.5577 34.5064 45.5609 34.8266 45.6963 35.1L47.8846 39.5179C48.4364 40.6319 48.244 41.9708 47.4008 42.8843L44.8981 45.5955C44.0434 46.5214 42.7011 46.8145 41.5382 46.3291L36.5671 44.2543C36.3292 44.1549 36.0621 44.1514 35.8216 44.2443L34.676 44.6869C34.4251 44.7838 34.2239 44.9777 34.1177 45.2248L31.9858 50.1847C31.5124 51.2862 30.4286 52 29.2296 52H25.8695C24.6907 52 23.6211 51.3097 23.1357 50.2355L21.1277 45.7924C21.024 45.5628 20.8373 45.3808 20.6052 45.2829L18.2395 44.2848C17.9815 44.176 17.6897 44.1803 17.435 44.2967L13.1336 46.2631C11.9716 46.7943 10.6007 46.5313 9.71778 45.6077L7.20239 42.9765C6.27671 42.0082 6.10519 40.5435 6.78208 39.3875L8.94446 35.6947C9.11351 35.406 9.127 35.0519 8.98041 34.7512L8.01032 32.7611C7.89326 32.521 7.68498 32.3377 7.43192 32.2521L2.20163 30.4825C0.983147 30.0702 0.163086 28.9271 0.163086 27.6407V24.664C0.163086 23.3774 0.983492 22.234 2.20234 21.822L7.2608 20.1119C7.56318 20.0097 7.7986 19.7693 7.89443 19.4648L8.51584 17.4904C8.5918 17.2491 8.57344 16.9879 8.46445 16.7595L6.54215 12.7316C6.02983 11.6581 6.20014 10.3833 6.97629 9.48192L9.37028 6.70173C10.1997 5.73846 11.5462 5.40252 12.731 5.86327L17.9386 7.88849C18.1748 7.98036 18.4371 7.9791 18.6724 7.88497L20.4465 7.17533C20.7178 7.06682 20.928 6.84511 21.022 6.56847L22.5618 2.03512Z" fill="#2CAAE2"/>
<path fill-rule="evenodd" clip-rule="evenodd" d="M21.8904 14.4311C26.4365 12.8066 31.8555 13.9871 34.8255 15.749C35.3005 16.0308 35.4571 16.6443 35.1754 17.1192C34.8936 17.5942 34.2801 17.7509 33.8051 17.4691C31.2442 15.9499 26.4451 14.9274 22.5634 16.3145C20.6621 16.9939 18.9859 18.2469 17.8615 20.3219C16.906 22.0853 16.3165 24.5035 16.3922 27.7741L19.1011 25.5722C19.5297 25.2238 20.1595 25.2888 20.5079 25.7174C20.8562 26.1459 20.7912 26.7758 20.3626 27.1241L16.1404 30.5562C15.7432 30.879 15.1664 30.8498 14.8039 30.4886L10.8089 26.5087C10.4176 26.1189 10.4164 25.4858 10.8062 25.0945C11.196 24.7032 11.8292 24.702 12.2204 25.0918L14.3858 27.2491C14.3818 23.9875 15.0066 21.3925 16.1031 19.369C17.4877 16.8139 19.5778 15.2575 21.8904 14.4311Z" fill="#2CAAE2"/>
<path fill-rule="evenodd" clip-rule="evenodd" d="M32.1106 37.5689C27.5645 39.1934 22.1455 38.0129 19.1755 36.251C18.7005 35.9692 18.5438 35.3557 18.8256 34.8808C19.1074 34.4058 19.7209 34.2491 20.1959 34.5309C22.7568 36.0501 27.5558 37.0726 31.4376 35.6855C33.3388 35.0061 35.015 33.7531 36.1394 31.6781C37.095 29.9147 37.6845 27.4965 37.6088 24.2259L34.8998 26.4278C34.4713 26.7762 33.8415 26.7112 33.4931 26.2826C33.1448 25.8541 33.2098 25.2242 33.6383 24.8759L37.8606 21.4438C38.2577 21.121 38.8345 21.1502 39.1971 21.5114L43.1921 25.4913C43.5834 25.8811 43.5846 26.5142 43.1948 26.9055C42.805 27.2968 42.1718 27.298 41.7806 26.9082L39.6152 24.7509C39.6192 28.0125 38.9943 30.6075 37.8978 32.631C36.5132 35.1861 34.4232 36.7425 32.1106 37.5689Z" fill="#2CAAE2"/>
</svg>
