<svg width="196" height="59" viewBox="0 0 196 59" fill="none" xmlns="http://www.w3.org/2000/svg">
<g clip-path="url(#clip0)">
<path d="M130.501 29.1431V21.5322L134.433 25.3967L138.343 21.4928V29.1538H142.882V11.6863H141.403L134.443 19.3223L127.516 11.4893H126.065V29.1431H130.501ZM97.0889 45.6185C94.6007 45.6185 92.5818 43.4302 92.5818 40.7296C92.5818 38.0291 94.6007 35.83 97.0889 35.83C97.9304 35.8145 98.7573 36.0527 99.4635 36.5141C100.17 36.9755 100.723 37.639 101.052 38.4195H105.424C104.425 34.2791 100.995 31.5213 96.9574 31.5213C92.1339 31.5213 88.2168 35.6366 88.2168 40.7153C88.2168 45.794 92.1268 49.9057 96.9574 49.9057C101.052 49.9057 104.525 46.9652 105.463 42.7891H101.134C100.825 43.6171 100.273 44.3309 99.5517 44.8356C98.8305 45.3403 97.974 45.6121 97.096 45.615L97.0889 45.6185ZM95.3827 26.9082H102.328L103.576 29.1574H111.577L112.757 26.8759H119.706L120.961 29.1288H125.308L117.257 11.3281H115.455L107.614 28.4447L99.8792 11.3604H98.077L89.9016 29.1897H94.2026L95.3827 26.9082ZM116.337 18.4484L118.292 23.1654H114.25L116.337 18.4484ZM98.9728 18.477L100.931 23.194H96.8827L98.9728 18.477ZM173.995 39.5083L167.081 31.6789H165.631V49.3327H170.056V41.7217L173.991 45.5899L177.88 41.6823V49.3398H182.429V31.8759H180.94L173.995 39.5083ZM193.374 39.4582C193.825 39.0278 194.186 38.5113 194.437 37.9388C194.688 37.3664 194.823 36.7493 194.835 36.1237C194.835 33.4124 192.347 31.2097 189.258 31.2097C186.261 31.2097 183.816 33.3014 183.695 35.9231H187.431C187.602 35.6293 187.853 35.3903 188.154 35.2338C188.454 35.0773 188.793 35.0095 189.13 35.0384C189.348 35.0126 189.568 35.0335 189.778 35.0998C189.987 35.1661 190.18 35.2763 190.344 35.4232C190.507 35.57 190.639 35.7502 190.728 35.9518C190.818 36.1534 190.865 36.3719 190.865 36.5929C190.865 36.8139 190.818 37.0323 190.728 37.2339C190.639 37.4355 190.507 37.6157 190.344 37.7625C190.18 37.9094 189.987 38.0196 189.778 38.0859C189.568 38.1522 189.348 38.1731 189.13 38.1473H188.003V41.6215H189.336C189.62 41.5976 189.905 41.6334 190.174 41.7264C190.444 41.8195 190.691 41.9678 190.9 42.162C191.11 42.3562 191.277 42.5921 191.391 42.8548C191.506 43.1175 191.565 43.4012 191.565 43.688C191.565 43.9749 191.506 44.2586 191.391 44.5213C191.277 44.784 191.11 45.0199 190.9 45.2141C190.691 45.4083 190.444 45.5566 190.174 45.6497C189.905 45.7427 189.62 45.7785 189.336 45.7546C189.038 45.757 188.743 45.7 188.468 45.587C188.193 45.4739 187.942 45.307 187.731 45.0959C187.52 44.8848 187.352 44.6337 187.238 44.357C187.123 44.0804 187.065 43.7836 187.065 43.4839H183.297C183.278 43.6432 183.269 43.8034 183.268 43.9638C183.268 47.0261 186.112 49.5046 189.638 49.5046C193.164 49.5046 196.001 47.0261 196.001 43.9638C196.001 42.13 194.924 40.4682 193.36 39.4582H193.374ZM157.534 42.6315H163.487V38.6917H157.534V35.7619H163.967V31.8221H153.236V49.39H163.989V45.3177H157.534V42.6315ZM110.649 40.5076V31.9582H106.309V49.5297H107.639L116.763 40.8908V49.4867H121.178V31.8723H119.589L110.649 40.5076ZM139.267 35.8837H143.454V49.3864H147.759V35.9124H152.084V31.9726H139.253L139.267 35.8837ZM131.347 45.5541C128.859 45.5541 126.844 43.3585 126.844 40.658C126.844 37.9575 128.856 35.7619 131.347 35.7619C132.189 35.7475 133.015 35.9876 133.72 36.4511C134.424 36.9146 134.975 37.5803 135.3 38.3622H139.683C138.68 34.2147 135.25 31.4532 131.212 31.4532C126.385 31.4532 122.479 35.5685 122.479 40.6437C122.479 45.7188 126.389 49.8413 131.212 49.8413C135.307 49.8413 138.776 46.8972 139.722 42.7174H135.378C135.068 43.5474 134.515 44.2633 133.793 44.7708C133.071 45.2784 132.213 45.554 131.333 45.5612L131.347 45.5541Z" fill="#C4C4C4"/>
<path d="M166.347 14.0849L167.442 15.2489L168.548 14.0849V16.2339C168.836 16.2339 169.124 16.2339 169.415 16.2339V12.1222H169.205L167.428 14.0742L165.683 12.1222H165.466V16.2196C165.754 16.2196 166.042 16.2196 166.333 16.2196L166.347 14.0849ZM176.073 26.1586H174.484V24.5826H173.616V28.6657H174.484V26.9214H176.073V28.6657H176.94V24.5826H176.073V26.1586ZM169.436 19.092H170.901V18.3757H168.47V22.4337H170.958V21.7174H169.298V21.5848C169.298 21.3234 169.298 21.0762 169.298 20.8219V20.693H170.762V19.9767H169.298V19.1028L169.436 19.092ZM175.163 12.1365H174.324V16.216H175.166L175.163 12.1365ZM166.23 20.9294H166.586V22.4337H167.446V18.3614H166.586V20.1522H166.23C166.059 20.1755 165.884 20.1491 165.727 20.0762C165.569 20.0033 165.436 19.8868 165.342 19.7403C165.215 19.4374 165.162 19.1081 165.189 18.7804V18.3793H164.321V18.7804C164.35 20.2632 164.791 20.9043 166.23 20.9294ZM166.561 24.511L164.677 28.6657H165.544L165.797 28.1213H167.663L167.698 28.1965L167.915 28.6657H168.779L166.881 24.5289L166.561 24.511ZM166.028 27.4479L166.593 26.1227L166.71 25.847L167.421 27.4479H166.028ZM164.57 15.5068H162.921V14.4682H164.385V13.7518H162.921V12.8672H164.513V12.1508H162.082V16.2303H164.57V15.5068ZM170.929 27.9744C170.763 27.9681 170.599 27.9282 170.449 27.8572C170.298 27.7862 170.162 27.6855 170.051 27.561C169.939 27.4365 169.853 27.2907 169.799 27.1323C169.744 26.9738 169.721 26.806 169.731 26.6385C169.716 26.4695 169.735 26.299 169.788 26.1379C169.841 25.9767 169.927 25.8285 170.04 25.7025C170.153 25.5766 170.29 25.4757 170.444 25.4062C170.598 25.3367 170.764 25.3002 170.933 25.299C171.149 25.2828 171.365 25.3357 171.55 25.4501C171.735 25.5645 171.88 25.7347 171.964 25.9365H172.803C172.703 25.5205 172.461 25.1533 172.119 24.8998C171.777 24.6462 171.357 24.5224 170.933 24.5504C170.654 24.5388 170.375 24.5841 170.114 24.6837C169.853 24.7833 169.614 24.9351 169.412 25.1299C169.211 25.3248 169.05 25.5588 168.941 25.8177C168.831 26.0766 168.775 26.3552 168.775 26.6367C168.775 26.9182 168.831 27.1968 168.941 27.4557C169.05 27.7146 169.211 27.9486 169.412 28.1435C169.614 28.3383 169.853 28.4901 170.114 28.5897C170.375 28.6893 170.654 28.7347 170.933 28.723C171.772 28.723 172.618 28.3183 172.824 27.2724H171.992C171.911 27.4862 171.764 27.6682 171.573 27.7919C171.381 27.9156 171.156 27.9745 170.929 27.9601V27.9744ZM179.816 24.5253C179.397 24.5197 178.987 24.6395 178.637 24.8695C178.286 25.0996 178.012 25.4295 177.848 25.8172C177.684 26.205 177.638 26.6331 177.717 27.0471C177.795 27.461 177.994 27.8421 178.288 28.1419C178.582 28.4417 178.958 28.6465 179.368 28.7304C179.777 28.8143 180.203 28.7735 180.59 28.613C180.976 28.4526 181.307 28.1799 181.539 27.8295C181.772 27.4792 181.896 27.0671 181.895 26.6457C181.912 26.3636 181.87 26.0809 181.772 25.8162C181.674 25.5515 181.521 25.3106 181.324 25.1093C181.128 24.9079 180.891 24.7506 180.63 24.6475C180.368 24.5444 180.089 24.4979 179.808 24.511L179.816 24.5253ZM179.816 27.9601C179.555 27.9788 179.295 27.9182 179.07 27.7861C178.844 27.654 178.663 27.4566 178.55 27.2196C178.437 26.9825 178.398 26.7167 178.437 26.4567C178.476 26.1967 178.591 25.9546 178.769 25.7617C178.946 25.5688 179.177 25.4341 179.431 25.3751C179.686 25.3161 179.952 25.3355 180.195 25.4309C180.438 25.5262 180.647 25.693 180.795 25.9096C180.943 26.1263 181.023 26.3827 181.024 26.6457C181.033 26.8122 181.009 26.9789 180.952 27.1356C180.895 27.2923 180.808 27.4358 180.694 27.5573C180.581 27.6789 180.444 27.776 180.293 27.8428C180.141 27.9095 179.978 27.9446 179.812 27.9458L179.816 27.9601ZM160.831 28.6764H161.698V25.3563H163.287V28.6764H164.154V24.5826H160.831V28.6764ZM178.756 22.4337H179.776L178.561 20.4423L178.667 20.3742C179.414 19.8871 179.435 19.2066 179.439 18.3685H178.564V18.4581C178.59 18.8159 178.534 19.1748 178.401 19.5075C178.299 19.6816 178.149 19.8221 177.969 19.9117C177.789 20.0014 177.587 20.0364 177.388 20.0125H177.178V18.3685H176.318V22.4337H177.178V20.7861H177.306C177.442 20.7905 177.577 20.7821 177.711 20.7611H177.8L178.756 22.4337ZM184.493 27.953C184.327 27.9471 184.163 27.9075 184.011 27.8367C183.86 27.7659 183.725 27.6653 183.613 27.5407C183.501 27.4162 183.414 27.2703 183.359 27.1116C183.304 26.9529 183.281 26.7848 183.292 26.617C183.292 25.847 183.775 25.2775 184.493 25.2775C184.71 25.2611 184.927 25.3138 185.113 25.4282C185.298 25.5426 185.443 25.7129 185.528 25.915H186.359C186.15 24.9408 185.293 24.5325 184.49 24.5289C184.211 24.5173 183.932 24.5626 183.671 24.6622C183.41 24.7618 183.171 24.9136 182.969 25.1085C182.768 25.3033 182.607 25.5373 182.498 25.7962C182.388 26.0551 182.332 26.3337 182.332 26.6152C182.332 26.8967 182.388 27.1753 182.498 27.4342C182.607 27.6932 182.768 27.9271 182.969 28.122C183.171 28.3169 183.41 28.4686 183.671 28.5682C183.932 28.6678 184.211 28.7132 184.49 28.7015C185.329 28.7015 186.175 28.2968 186.381 27.251H185.549C185.472 27.4675 185.327 27.6533 185.137 27.781C184.947 27.9086 184.721 27.9714 184.493 27.9601V27.953ZM184.202 20.3993C184.196 19.9853 184.069 19.5822 183.837 19.2408C183.604 18.8994 183.277 18.6348 182.896 18.4805C182.514 18.3261 182.096 18.2888 181.694 18.3733C181.292 18.4578 180.923 18.6603 180.635 18.9552C180.347 19.2502 180.151 19.6246 180.074 20.0311C179.996 20.4377 180.039 20.8583 180.198 21.2401C180.357 21.6219 180.625 21.9478 180.967 22.1767C181.31 22.4057 181.712 22.5275 182.122 22.5268C182.401 22.5376 182.678 22.4899 182.937 22.3869C183.195 22.2838 183.43 22.1276 183.626 21.9281C183.821 21.7287 183.973 21.4904 184.073 21.2284C184.172 20.9664 184.216 20.6865 184.202 20.4065V20.3993ZM182.126 21.7174C181.866 21.736 181.606 21.6754 181.38 21.5433C181.155 21.4113 180.974 21.2139 180.861 20.9768C180.748 20.7397 180.708 20.474 180.747 20.214C180.786 19.954 180.902 19.7118 181.079 19.5189C181.257 19.326 181.487 19.1913 181.742 19.1323C181.996 19.0733 182.262 19.0928 182.505 19.1881C182.748 19.2834 182.958 19.4502 183.105 19.6669C183.253 19.8835 183.333 20.14 183.335 20.4029C183.346 20.5703 183.323 20.7382 183.267 20.8964C183.212 21.0545 183.125 21.1996 183.012 21.3227C182.898 21.4457 182.761 21.5442 182.609 21.6121C182.457 21.68 182.293 21.7158 182.126 21.7174ZM193.742 28.6621V24.5826H193.525L191.162 26.9107V24.5826H190.294V28.6693H190.508L192.864 26.3484V28.6621H193.742ZM186.775 25.3133H187.842V28.6621H188.67V25.3133H189.736V24.5826H186.793L186.775 25.3133ZM186.878 17.8599C187.472 17.8599 187.749 17.6057 187.813 17.0433L187.422 17.0039C187.38 17.1146 187.302 17.2078 187.201 17.2688C187.099 17.3297 186.981 17.355 186.864 17.3406C186.751 17.3517 186.637 17.3247 186.541 17.2638C186.444 17.2029 186.371 17.1115 186.331 17.0039L185.944 17.0433C186.004 17.6057 186.303 17.8492 186.878 17.8635V17.8599ZM187.561 20.1235V22.4337H188.442V18.3399H188.226L185.862 20.6679V18.3614H184.998V22.4337H185.208L187.561 20.1235ZM162.733 22.4337H163.611V18.3399H163.394L161.03 20.6679V18.3614H160.163V22.4337H160.376L162.733 20.1128V22.4337ZM156.69 20.6894H158.279V22.4337H159.146V18.3614H158.279V19.9265H156.69V18.3506H155.823V22.4337H156.69V20.6894ZM159.64 16.2088H160.468V12.8672H161.535V12.1508H158.592V12.8672H159.658L159.64 16.2088ZM146.133 22.4337H146.965V19.0849H148.031V18.3685H145.088V19.0849H146.154L146.133 22.4337ZM147.26 26.1048H146.336V25.3169H148.326V24.5826H145.482V28.6657H147.26C148.227 28.6657 148.682 28.0246 148.682 27.3835C148.682 26.7424 148.209 26.112 147.26 26.1048ZM147.26 27.935H146.343V26.8247H147.26C147.406 26.8247 147.546 26.8832 147.649 26.9873C147.753 27.0915 147.811 27.2327 147.811 27.3799C147.811 27.5271 147.753 27.6683 147.649 27.7724C147.546 27.8766 147.406 27.935 147.26 27.935ZM156.299 16.2625C157.138 16.2625 157.98 15.8542 158.186 14.8084H157.355C157.278 15.0281 157.132 15.2168 156.94 15.346C156.748 15.4752 156.519 15.5379 156.288 15.5247C156.119 15.5204 155.953 15.4815 155.8 15.4104C155.647 15.3393 155.509 15.2374 155.396 15.1111C155.283 14.9848 155.197 14.8366 155.142 14.6756C155.088 14.5146 155.067 14.3441 155.08 14.1745C155.064 14.0055 155.084 13.8353 155.137 13.6744C155.191 13.5135 155.276 13.3655 155.389 13.2397C155.502 13.1138 155.64 13.0129 155.793 12.9432C155.947 12.8736 156.113 12.8367 156.281 12.8349C156.5 12.8178 156.718 12.8709 156.904 12.9868C157.091 13.1027 157.236 13.2752 157.319 13.4796H158.158C158.06 13.0626 157.818 12.6942 157.476 12.4398C157.133 12.1854 156.713 12.0614 156.288 12.09C156.016 12.09 155.747 12.144 155.495 12.2489C155.244 12.3538 155.015 12.5076 154.823 12.7015C154.63 12.8954 154.478 13.1256 154.374 13.379C154.27 13.6323 154.216 13.9038 154.216 14.178C154.216 14.4523 154.27 14.7238 154.374 14.9771C154.478 15.2305 154.63 15.4606 154.823 15.6545C155.015 15.8484 155.244 16.0022 155.495 16.1072C155.747 16.2121 156.016 16.2661 156.288 16.2661L156.299 16.2625ZM147.309 16.2625C148.148 16.2625 148.991 15.8542 149.2 14.8084H148.365C148.288 15.0281 148.143 15.2168 147.951 15.346C147.758 15.4752 147.53 15.5379 147.299 15.5247C147.132 15.5184 146.969 15.4785 146.818 15.4076C146.667 15.3366 146.531 15.2359 146.419 15.1115C146.307 14.987 146.221 14.8413 146.166 14.6828C146.111 14.5244 146.087 14.3564 146.097 14.1888C146.083 14.0197 146.103 13.8493 146.157 13.6885C146.21 13.5276 146.296 13.3796 146.409 13.2538C146.523 13.1281 146.66 13.0272 146.814 12.9576C146.968 12.888 147.134 12.8511 147.302 12.8493C147.517 12.8341 147.731 12.8866 147.914 12.9996C148.098 13.1126 148.242 13.2804 148.326 13.4796H149.165C149.067 13.0626 148.825 12.6942 148.483 12.4398C148.14 12.1854 147.72 12.0614 147.295 12.09C147.023 12.09 146.754 12.144 146.502 12.2489C146.251 12.3538 146.022 12.5076 145.83 12.7015C145.637 12.8954 145.485 13.1256 145.381 13.379C145.277 13.6323 145.223 13.9038 145.223 14.178C145.223 14.4523 145.277 14.7238 145.381 14.9771C145.485 15.2305 145.637 15.4606 145.83 15.6545C146.022 15.8484 146.251 16.0022 146.502 16.1072C146.754 16.2121 147.023 16.2661 147.295 16.2661L147.309 16.2625ZM157.994 24.5003C157.576 24.4953 157.166 24.6157 156.816 24.8462C156.466 25.0767 156.192 25.4069 156.029 25.7947C155.866 26.1825 155.821 26.6105 155.899 27.0243C155.978 27.438 156.177 27.8188 156.471 28.1182C156.766 28.4176 157.141 28.6221 157.551 28.7057C157.961 28.7893 158.386 28.7482 158.773 28.5877C159.159 28.4271 159.49 28.1544 159.722 27.8041C159.954 27.4538 160.078 27.0419 160.077 26.6206C160.091 26.3388 160.045 26.0573 159.944 25.7943C159.842 25.5313 159.687 25.2926 159.489 25.0938C159.29 24.895 159.052 24.7404 158.79 24.64C158.529 24.5396 158.249 24.4957 157.969 24.511L157.994 24.5003ZM157.994 27.935C157.734 27.953 157.475 27.8917 157.249 27.7592C157.024 27.6266 156.844 27.429 156.731 27.1918C156.619 26.9546 156.58 26.6889 156.62 26.4291C156.659 26.1693 156.775 25.9275 156.952 25.7349C157.13 25.5424 157.361 25.4081 157.615 25.3494C157.869 25.2908 158.135 25.3105 158.378 25.4059C158.621 25.5014 158.83 25.6683 158.978 25.8849C159.125 26.1015 159.205 26.3578 159.206 26.6206C159.219 26.791 159.197 26.9621 159.14 27.1233C159.084 27.2844 158.995 27.432 158.879 27.5566C158.763 27.6812 158.623 27.7802 158.467 27.8472C158.311 27.9142 158.143 27.9478 157.973 27.9458L157.994 27.935ZM152.634 18.3506H151.696L152.947 20.2847L151.525 22.4337H152.506L153.26 21.1335L153.295 21.0691H153.48L154.269 22.4337H155.254L153.832 20.2632L155.101 18.3542H154.163L153.473 19.4824H153.302L152.634 18.3506ZM173.659 14.812C173.665 14.6241 173.633 14.4369 173.563 14.2626C173.493 14.0882 173.388 13.9305 173.254 13.7996C173.12 13.6687 172.96 13.5675 172.785 13.5025C172.61 13.4375 172.424 13.4102 172.237 13.4223H171.313V12.1365H170.471V16.216H172.248C172.432 16.223 172.615 16.1918 172.786 16.1243C172.958 16.0568 173.113 15.9546 173.244 15.8239C173.374 15.6932 173.476 15.5369 173.544 15.3646C173.612 15.1924 173.644 15.0079 173.638 14.8227L173.659 14.812ZM171.971 15.4782H171.317V14.1709H172.237C172.32 14.174 172.402 14.1939 172.477 14.2294C172.552 14.2648 172.619 14.3151 172.674 14.3773C172.73 14.4394 172.772 14.5122 172.799 14.5911C172.826 14.6701 172.837 14.7537 172.831 14.8371C172.836 14.9194 172.825 15.0019 172.798 15.0797C172.77 15.1574 172.728 15.2288 172.672 15.2894C172.617 15.35 172.549 15.3987 172.475 15.4323C172.4 15.466 172.319 15.4841 172.237 15.4853L171.971 15.4782ZM150.288 26.9071H151.753V26.1908H150.288V25.3169H150.42C151.006 25.3169 151.326 25.3169 151.884 25.3169V24.6006H149.453V28.6657H151.941V27.9494H150.292L150.288 26.9071ZM152.588 13.8915V16.2052H153.469V12.115H153.249L150.889 14.4431V12.1365H150.022V16.2231H150.231L152.588 13.8915ZM154.884 26.5454L154.706 26.4487L154.866 26.3233C154.971 26.2366 155.054 26.127 155.11 26.0029C155.166 25.8787 155.194 25.7433 155.19 25.607C155.19 25.0411 154.785 24.4859 153.903 24.4788C153.228 24.4788 152.709 24.7725 152.673 25.3885H153.416C153.484 25.3097 153.573 25.252 153.672 25.222C153.771 25.1921 153.877 25.1911 153.977 25.2192C154.077 25.2474 154.166 25.3035 154.236 25.381C154.305 25.4585 154.351 25.5542 154.369 25.6571C154.368 25.7261 154.354 25.7943 154.327 25.8576C154.3 25.921 154.261 25.9782 154.211 26.026C154.162 26.0737 154.104 26.111 154.04 26.1356C153.976 26.1603 153.908 26.1717 153.839 26.1693H153.679V26.814H153.85C153.937 26.8046 154.024 26.8137 154.107 26.8408C154.19 26.8678 154.267 26.9122 154.332 26.9709C154.397 27.0297 154.449 27.1016 154.484 27.1819C154.52 27.2623 154.538 27.3492 154.538 27.4372C154.538 27.5252 154.52 27.6121 154.484 27.6925C154.449 27.7728 154.397 27.8447 154.332 27.9035C154.267 27.9622 154.19 28.0066 154.107 28.0336C154.024 28.0607 153.937 28.0698 153.85 28.0604C153.691 28.064 153.536 28.0093 153.415 27.9065C153.293 27.8037 153.213 27.6598 153.189 27.5017H152.478C152.535 28.329 153.007 28.723 153.85 28.7373C154.916 28.7373 155.375 28.2001 155.382 27.5017C155.397 27.308 155.354 27.1142 155.258 26.9455C155.162 26.7768 155.018 26.6412 154.845 26.5561L154.884 26.5454ZM173.673 19.049C173.89 19.0334 174.106 19.0865 174.29 19.2009C174.475 19.3152 174.62 19.4851 174.704 19.6866H175.543C175.443 19.2706 175.201 18.9034 174.859 18.6498C174.517 18.3962 174.097 18.2725 173.673 18.3005C173.394 18.2888 173.116 18.3342 172.854 18.4338C172.593 18.5333 172.354 18.6851 172.153 18.88C171.951 19.0749 171.791 19.3088 171.681 19.5678C171.572 19.8267 171.515 20.1053 171.515 20.3868C171.515 20.6683 171.572 20.9469 171.681 21.2058C171.791 21.4647 171.951 21.6987 172.153 21.8935C172.354 22.0884 172.593 22.2402 172.854 22.3398C173.116 22.4394 173.394 22.4847 173.673 22.4731C174.512 22.4731 175.355 22.0648 175.561 21.0189H174.729C174.652 21.2387 174.507 21.4273 174.315 21.5565C174.122 21.6857 173.893 21.7484 173.663 21.7353C173.496 21.7294 173.333 21.6899 173.182 21.6194C173.031 21.5488 172.895 21.4485 172.783 21.3243C172.671 21.2001 172.585 21.0546 172.53 20.8964C172.475 20.7381 172.451 20.5704 172.461 20.4029C172.433 19.6293 172.913 19.0598 173.634 19.0598L173.673 19.049ZM151.038 19.0813V18.365H148.607V22.4337H151.095V21.7174H149.392V20.693H150.857V19.9767H149.392V19.1028L151.038 19.0813Z" fill="#C4C4C4"/>
<path d="M64.2231 0H55.12L41.9541 33.5419L28.7916 0H19.6885L0 49.5553H11.7761L13.8591 44.3154H29.4244L25.8094 35.1321H17.5096L23.2395 20.734L24.2099 16.8945L25.0487 20.734L32.5843 39.867L40.1199 59H43.7917L51.3273 39.867L58.8629 20.734L59.7018 16.8945L60.6722 20.734L66.4021 35.1321H58.1023L54.4873 44.3154H70.0526L72.1355 49.5553H83.9117L64.2231 0Z" fill="#C4C4C4"/>
</g>
<defs>
<clipPath id="clip0">
<rect width="196" height="59" fill="white"/>
</clipPath>
</defs>
</svg>
