<svg width="54" height="54" viewBox="0 0 54 54" fill="none" xmlns="http://www.w3.org/2000/svg">
<path fill-rule="evenodd" clip-rule="evenodd" d="M15.8626 20.3736C15.8606 20.3736 15.8596 20.3737 15.8596 20.3737L15.8336 20.3752H7.02733C7.00097 20.3752 6.98976 20.3787 6.98872 20.3791C6.9886 20.3791 6.98881 20.3791 6.98872 20.3791C6.98824 20.3792 6.98781 20.3793 6.98656 20.3802C6.98188 20.3835 6.95346 20.4062 6.91639 20.4768C6.87925 20.5474 6.84648 20.642 6.82371 20.7512C6.80111 20.8596 6.79311 20.9597 6.79311 21.0283V50.3932C6.79311 50.9803 6.93754 51.169 6.96684 51.2013H47.0036C47.1007 51.2013 47.1571 51.1779 47.1979 51.1523C47.2458 51.1222 47.3032 51.068 47.3626 50.9753C47.4839 50.7857 47.5517 50.5304 47.5704 50.353V27.1492C47.5704 26.7547 47.5195 26.5183 47.4703 26.3851C47.4258 26.2646 47.3855 26.2345 47.3819 26.2319C47.3548 26.2109 47.2962 26.1862 47.0036 26.1862H20.0645C19.4016 26.1862 18.9027 25.8316 18.562 25.4483C18.2271 25.0716 17.9722 24.5909 17.7704 24.1261C17.4801 23.4573 17.2332 22.6506 17.027 21.9769C16.9519 21.7316 16.8822 21.5039 16.8178 21.3069C16.6675 20.8475 16.4403 20.6246 16.2629 20.5113C16.1681 20.4508 16.0763 20.4145 15.999 20.3943C15.9605 20.3842 15.9274 20.3786 15.9017 20.3759C15.889 20.3745 15.8788 20.3739 15.8713 20.3737L15.8626 20.3736ZM15.786 18.5821C16.5942 18.5492 17.9631 19.0406 18.5221 20.7496C18.6087 21.0145 18.6918 21.286 18.775 21.558C18.971 22.1986 19.1679 22.8424 19.4153 23.4121C19.5877 23.8093 19.7526 24.0888 19.9021 24.2569C19.9731 24.3369 20.0235 24.3719 20.0488 24.3856C20.058 24.3906 20.0634 24.3925 20.0652 24.3931H47.0036C47.0139 24.3931 47.0252 24.3931 47.0374 24.393C47.291 24.3918 47.9291 24.3889 48.4776 24.8125C49.0951 25.2893 49.3635 26.0922 49.3635 27.1492V50.4282L49.3608 50.463C49.3303 50.8536 49.1991 51.4321 48.8729 51.9419C48.5276 52.4814 47.9192 52.9944 47.0036 52.9944H7.07457C6.63379 53.0324 6.09585 52.8855 5.67226 52.442C5.22466 51.9734 5 51.2781 5 50.3932V21.0283C5 20.6727 5.07257 20.1309 5.32903 19.6428C5.60417 19.1191 6.14761 18.5821 7.02733 18.5821H15.786Z" fill="#2CAAE2"/>
<path fill-rule="evenodd" clip-rule="evenodd" d="M12.6595 7.86782C11.1741 7.86782 9.96987 9.07202 9.96987 10.5575V20.0004H8.17676V10.5575C8.17676 8.08171 10.1838 6.07471 12.6595 6.07471H15.6591V7.86782H12.6595Z" fill="#2CAAE2"/>
<path fill-rule="evenodd" clip-rule="evenodd" d="M19.1683 2.79311C17.6829 2.79311 16.4787 3.99732 16.4787 5.48278V19.9317H14.6855V5.48278C14.6855 3.00701 16.6926 1 19.1683 1H36.8568L45.6866 10.9508V25.2119H43.8935V12.1878H40.04C37.5642 12.1878 35.5572 10.1808 35.5572 7.70504V2.79311H19.1683ZM37.3503 4.25775L42.7959 10.3947H40.04C38.5545 10.3947 37.3503 9.1905 37.3503 7.70504V4.25775Z" fill="#2CAAE2"/>
<path fill-rule="evenodd" clip-rule="evenodd" d="M20.6787 10.9556C20.6787 10.4605 21.0801 10.0591 21.5753 10.0591H32.3035C32.7987 10.0591 33.2001 10.4605 33.2001 10.9556C33.2001 11.4508 32.7987 11.8522 32.3035 11.8522H21.5753C21.0801 11.8522 20.6787 11.4508 20.6787 10.9556Z" fill="#2CAAE2"/>
<path fill-rule="evenodd" clip-rule="evenodd" d="M20.6787 15.5264C20.6787 15.0313 21.0801 14.6299 21.5753 14.6299H39.9968C40.4919 14.6299 40.8933 15.0313 40.8933 15.5264C40.8933 16.0216 40.4919 16.423 39.9968 16.423H21.5753C21.0801 16.423 20.6787 16.0216 20.6787 15.5264Z" fill="#2CAAE2"/>
<path fill-rule="evenodd" clip-rule="evenodd" d="M20.6787 20.0003C20.6787 19.5052 21.0801 19.1038 21.5753 19.1038H39.9968C40.4919 19.1038 40.8933 19.5052 40.8933 20.0003C40.8933 20.4955 40.4919 20.8969 39.9968 20.8969H21.5753C21.0801 20.8969 20.6787 20.4955 20.6787 20.0003Z" fill="#2CAAE2"/>
<path fill-rule="evenodd" clip-rule="evenodd" d="M27.1913 41.8839C29.6737 41.8839 31.6861 39.8715 31.6861 37.389C31.6861 34.9066 29.6737 32.8942 27.1913 32.8942C24.7088 32.8942 22.6964 34.9066 22.6964 37.389C22.6964 39.8715 24.7088 41.8839 27.1913 41.8839ZM27.1913 43.677C30.664 43.677 33.4792 40.8618 33.4792 37.389C33.4792 33.9163 30.664 31.1011 27.1913 31.1011C23.7185 31.1011 20.9033 33.9163 20.9033 37.389C20.9033 40.8618 23.7185 43.677 27.1913 43.677Z" fill="#2CAAE2"/>
<path fill-rule="evenodd" clip-rule="evenodd" d="M25.4919 44.1364C22.0656 44.4589 19.2288 45.7077 17.8033 46.7636C17.4055 47.0584 16.844 46.9747 16.5492 46.5769C16.2545 46.179 16.3381 45.6175 16.736 45.3228C18.4493 44.0536 21.6046 42.7013 25.3239 42.3512C29.0663 41.9988 33.4369 42.6565 37.5185 45.4932C37.9251 45.7758 38.0256 46.3345 37.743 46.7411C37.4604 47.1477 36.9017 47.2482 36.4951 46.9656C32.8237 44.414 28.8952 43.816 25.4919 44.1364Z" fill="#2CAAE2"/>
</svg>
