<svg width="24" height="24" viewBox="0 0 24 24" fill="none" xmlns="http://www.w3.org/2000/svg">
<path fill-rule="evenodd" clip-rule="evenodd" d="M4.04376 2.14589C4.8056 1.27521 6.14505 1.23062 6.96312 2.04869L10.0744 5.15998C10.795 5.88059 10.8586 7.0278 10.2219 7.82358L9.22938 9.06429C10.3495 10.7152 12.6063 13.3692 15.2965 14.7895L16.086 14C16.867 13.2189 18.1334 13.2189 18.9144 14L21.9574 17.0429C22.7711 17.8566 22.732 19.1875 21.8719 19.952L18.656 22.8106C18.0655 23.3354 17.2018 23.4783 16.4634 23.1094C13.9112 21.8346 10.6672 19.7137 7.77959 16.9509C4.89728 14.1932 2.30835 10.7366 1.17447 6.78076C0.985506 6.12149 1.165 5.43589 1.59204 4.94785L4.04376 2.14589ZM8.6602 6.57419L5.54891 3.4629L3.1047 6.25628C4.11046 9.74012 6.43335 12.8949 9.16221 15.5057C11.8842 18.11 14.949 20.1144 17.3348 21.309L20.5432 18.4572L17.5002 15.4142L16.6929 16.2214C16.1176 16.7968 15.2053 16.9978 14.4195 16.588C11.2629 14.9418 8.74527 11.9243 7.54474 10.1434C7.04978 9.40916 7.13865 8.47613 7.6537 7.83232L8.6602 6.57419Z" fill="#2CAAE2"/>
</svg>
